<svg width="237" height="61" viewBox="0 0 237 61" fill="none" xmlns="http://www.w3.org/2000/svg">
<path d="M81.56 7.3H87.98V8.62H81.56V7.3ZM81.38 14.6H88.2V15.92H81.38V14.6ZM82.36 7.72H83.56V15.28H82.36V7.72ZM76.72 10.88H80.46V12.08H76.72V10.88ZM78.92 17.36L80.08 16.94C80.3333 17.4333 80.5867 17.96 80.84 18.52C81.0933 19.08 81.3133 19.62 81.5 20.14C81.7 20.66 81.8467 21.12 81.94 21.52L80.7 22.04C80.6067 21.6267 80.4667 21.1533 80.28 20.62C80.0933 20.0867 79.88 19.5333 79.64 18.96C79.4 18.3867 79.16 17.8533 78.92 17.36ZM76.74 7.32H81.06V15.78H76.74V14.52H79.82V8.58H76.74V7.32ZM74.82 21.3C75.5667 21.0867 76.4533 20.8133 77.48 20.48C78.5067 20.1467 79.5533 19.8 80.62 19.44L80.84 20.62C79.8933 20.9933 78.9533 21.3533 78.02 21.7C77.0867 22.0467 76.2267 22.3667 75.44 22.66L74.82 21.3ZM76.2 7.32H77.46V21.2L76.2 21.5V7.32ZM69.98 10.44H75.72V11.84H69.98V10.44ZM72.5 6.2H73.9V24.58H72.5V6.2ZM72.44 11.3L73.42 11.6C73.2867 12.3867 73.1133 13.2133 72.9 14.08C72.6867 14.9467 72.4467 15.8 72.18 16.64C71.9133 17.4667 71.62 18.2467 71.3 18.98C70.9933 19.7 70.6733 20.32 70.34 20.84C70.26 20.64 70.14 20.42 69.98 20.18C69.82 19.9267 69.68 19.72 69.56 19.56C69.8667 19.0933 70.1667 18.54 70.46 17.9C70.7533 17.2467 71.0267 16.5467 71.28 15.8C71.5467 15.0533 71.7733 14.3 71.96 13.54C72.16 12.7667 72.32 12.02 72.44 11.3ZM73.84 13.46C73.9467 13.5533 74.1067 13.7133 74.32 13.94C74.5333 14.1667 74.7667 14.42 75.02 14.7C75.2867 14.9667 75.52 15.22 75.72 15.46C75.9333 15.6867 76.08 15.8467 76.16 15.94L75.34 17.22C75.2333 17.0333 75.08 16.8 74.88 16.52C74.6933 16.24 74.4867 15.9467 74.26 15.64C74.0333 15.3333 73.82 15.0533 73.62 14.8C73.42 14.5333 73.26 14.32 73.14 14.16L73.84 13.46ZM85.22 8.02H86.5V10.56C86.5 11.3733 86.46 12.2467 86.38 13.18C86.3133 14.1 86.1667 15.0533 85.94 16.04C85.7133 17.0267 85.3667 18.02 84.9 19.02C84.4467 20.0067 83.8333 20.9733 83.06 21.92C82.3 22.8667 81.34 23.76 80.18 24.6C80.1133 24.5067 80.02 24.4 79.9 24.28C79.78 24.16 79.6533 24.0467 79.52 23.94C79.4 23.8333 79.2867 23.74 79.18 23.66C80.3 22.8733 81.2267 22.04 81.96 21.16C82.7067 20.2667 83.3 19.3533 83.74 18.42C84.18 17.4867 84.5 16.56 84.7 15.64C84.9133 14.72 85.0533 13.8333 85.12 12.98C85.1867 12.1133 85.22 11.3067 85.22 10.56V8.02ZM84.6 16.32H85.84V22.76C85.84 22.8267 85.8467 22.8933 85.86 22.96C85.8867 23.0133 85.9133 23.0533 85.94 23.08C86.02 23.1467 86.1333 23.18 86.28 23.18C86.3467 23.18 86.42 23.18 86.5 23.18C86.5933 23.18 86.68 23.18 86.76 23.18C86.84 23.18 86.9133 23.1733 86.98 23.16C87.06 23.1467 87.12 23.12 87.16 23.08C87.2 23.0533 87.24 23 87.28 22.92C87.32 22.8267 87.3467 22.72 87.36 22.6C87.3867 22.4267 87.4 22.14 87.4 21.74C87.4133 21.34 87.42 20.8933 87.42 20.4C87.54 20.5067 87.7 20.6133 87.9 20.72C88.1 20.8267 88.28 20.9067 88.44 20.96C88.44 21.4533 88.42 21.9467 88.38 22.44C88.3533 22.92 88.32 23.2533 88.28 23.44C88.1867 23.8133 88.0067 24.0867 87.74 24.26C87.5133 24.3933 87.22 24.46 86.86 24.46C86.74 24.46 86.5867 24.46 86.4 24.46C86.2133 24.46 86.0733 24.46 85.98 24.46C85.7933 24.46 85.6067 24.44 85.42 24.4C85.2333 24.36 85.0733 24.28 84.94 24.16C84.8067 24.0267 84.7133 23.86 84.66 23.66C84.62 23.46 84.6 23.14 84.6 22.7V16.32ZM89.92 17.12H108.1V18.38H89.92V17.12ZM90.38 7.06H107.6V8.4H90.38V7.06ZM96.84 15.04L98.32 15.42C97.88 16.1133 97.4 16.8467 96.88 17.62C96.36 18.3933 95.84 19.1467 95.32 19.88C94.8 20.6 94.32 21.2333 93.88 21.78L92.46 21.28C92.9 20.7333 93.38 20.1 93.9 19.38C94.42 18.66 94.94 17.92 95.46 17.16C95.98 16.4 96.44 15.6933 96.84 15.04ZM102.84 17.58L104.28 18C103.853 19.0933 103.253 20.0267 102.48 20.8C101.72 21.5733 100.787 22.2133 99.68 22.72C98.5733 23.2267 97.28 23.6267 95.8 23.92C94.32 24.2267 92.6467 24.4467 90.78 24.58C90.74 24.3667 90.66 24.1333 90.54 23.88C90.4333 23.64 90.3133 23.4333 90.18 23.26C92.5667 23.1267 94.6 22.8667 96.28 22.48C97.9733 22.08 99.3533 21.4867 100.42 20.7C101.5 19.9133 102.307 18.8733 102.84 17.58ZM93.56 21.1L94.3 20C95.9533 20.28 97.5933 20.6133 99.22 21C100.847 21.3733 102.373 21.7733 103.8 22.2C105.24 22.6133 106.473 23.02 107.5 23.42L106.58 24.64C105.567 24.2267 104.367 23.8067 102.98 23.38C101.607 22.9533 100.113 22.5467 98.5 22.16C96.9 21.76 95.2533 21.4067 93.56 21.1ZM95.84 7.56H97.26V14.56H95.84V7.56ZM100.52 7.56H101.94V14.56H100.52V7.56ZM92.8 11.34V14.06H105.28V11.34H92.8ZM91.38 10.1H106.76V15.28H91.38V10.1ZM118.78 16.88H125.14V17.92H118.78V16.88ZM118.8 19.4H125.16V20.44H118.8V19.4ZM116.62 11.16H125.7V12.38H116.62V11.16ZM118.74 22.04H125.56V23.2H118.74V22.04ZM121.5 14.86H122.8V22.48H121.5V14.86ZM119.44 14.36H125.42V15.44H119.44V24.14H118.1V15.38L119.08 14.36H119.44ZM122.2 12.74L123.58 13.04C123.38 13.4 123.18 13.76 122.98 14.12C122.793 14.4667 122.62 14.7733 122.46 15.04L121.4 14.74C121.533 14.4467 121.68 14.1133 121.84 13.74C122 13.3533 122.12 13.02 122.2 12.74ZM118.78 6.2L120.14 6.52C119.873 7.38667 119.52 8.22 119.08 9.02C118.653 9.82 118.193 10.5 117.7 11.06C117.633 10.98 117.527 10.8867 117.38 10.78C117.233 10.6733 117.087 10.5733 116.94 10.48C116.793 10.3733 116.667 10.2933 116.56 10.24C117.04 9.73333 117.467 9.12667 117.84 8.42C118.227 7.7 118.54 6.96 118.78 6.2ZM120.58 8.66L121.9 8.98C121.567 10.1 121.16 11.1733 120.68 12.2C120.213 13.2267 119.687 14.18 119.1 15.06C118.513 15.9267 117.873 16.6867 117.18 17.34C117.127 17.2467 117.04 17.1267 116.92 16.98C116.813 16.8333 116.7 16.6867 116.58 16.54C116.46 16.3933 116.353 16.2733 116.26 16.18C117.233 15.3133 118.093 14.22 118.84 12.9C119.587 11.58 120.167 10.1667 120.58 8.66ZM118.82 8.02H125.36V9.24H118.28L118.82 8.02ZM127.58 11.68V13.76H132.56V11.68H127.58ZM127.58 14.98V17.08H132.56V14.98H127.58ZM127.58 8.38V10.44H132.56V8.38H127.58ZM126.22 7.04H133.96V18.44H126.22V7.04ZM130.5 17.44H131.84V22.54C131.84 22.7533 131.86 22.8933 131.9 22.96C131.953 23.0267 132.073 23.06 132.26 23.06C132.3 23.06 132.393 23.06 132.54 23.06C132.687 23.06 132.833 23.06 132.98 23.06C133.14 23.06 133.253 23.06 133.32 23.06C133.453 23.06 133.547 23 133.6 22.88C133.667 22.76 133.713 22.5133 133.74 22.14C133.78 21.7667 133.807 21.1933 133.82 20.42C133.967 20.54 134.16 20.6533 134.4 20.76C134.64 20.8533 134.853 20.9267 135.04 20.98C135 21.8733 134.927 22.56 134.82 23.04C134.713 23.5333 134.553 23.8667 134.34 24.04C134.127 24.2267 133.84 24.32 133.48 24.32C133.387 24.32 133.24 24.32 133.04 24.32C132.853 24.32 132.66 24.32 132.46 24.32C132.273 24.32 132.14 24.32 132.06 24.32C131.633 24.32 131.307 24.2667 131.08 24.16C130.853 24.0667 130.7 23.8867 130.62 23.62C130.54 23.3533 130.5 22.9933 130.5 22.54V17.44ZM127.74 17.8H129.04C128.947 18.84 128.767 19.8 128.5 20.68C128.247 21.5467 127.833 22.3133 127.26 22.98C126.7 23.6333 125.92 24.18 124.92 24.62C124.84 24.46 124.713 24.2733 124.54 24.06C124.38 23.8467 124.227 23.68 124.08 23.56C124.987 23.2 125.687 22.74 126.18 22.18C126.687 21.62 127.053 20.9733 127.28 20.24C127.507 19.4933 127.66 18.68 127.74 17.8ZM143.18 9.74L144.8 10.04C144.12 11.0133 143.26 11.96 142.22 12.88C141.193 13.7867 139.947 14.6067 138.48 15.34C138.4 15.22 138.3 15.0933 138.18 14.96C138.073 14.8133 137.953 14.68 137.82 14.56C137.687 14.44 137.567 14.34 137.46 14.26C138.847 13.6467 140.02 12.9333 140.98 12.12C141.953 11.3067 142.687 10.5133 143.18 9.74ZM142.96 11.24H149.94V12.42H141.88L142.96 11.24ZM149.5 11.24H149.8L150.06 11.16L151.08 11.78C150.413 12.8333 149.56 13.7867 148.52 14.64C147.493 15.48 146.353 16.2267 145.1 16.88C143.847 17.52 142.54 18.0733 141.18 18.54C139.82 19.0067 138.467 19.3867 137.12 19.68C137.053 19.48 136.947 19.2533 136.8 19C136.653 18.7333 136.513 18.52 136.38 18.36C137.66 18.12 138.953 17.7933 140.26 17.38C141.567 16.9533 142.813 16.4533 144 15.88C145.2 15.2933 146.273 14.6333 147.22 13.9C148.18 13.1667 148.94 12.36 149.5 11.48V11.24ZM142.38 12.16C143.167 13.16 144.2 14.04 145.48 14.8C146.76 15.56 148.207 16.1933 149.82 16.7C151.447 17.1933 153.147 17.5533 154.92 17.78C154.813 17.9 154.7 18.0467 154.58 18.22C154.46 18.38 154.347 18.5467 154.24 18.72C154.133 18.8933 154.04 19.0533 153.96 19.2C152.173 18.92 150.467 18.5 148.84 17.94C147.213 17.3667 145.733 16.6533 144.4 15.8C143.08 14.9333 141.973 13.92 141.08 12.76L142.38 12.16ZM140.16 18.44H151.26V24.56H149.74V19.7H141.62V24.58H140.16V18.44ZM140.88 22.64H150.5V23.9H140.88V22.64ZM144.84 6.2H146.38V8.82H144.84V6.2ZM137.2 8.02H154.12V11.78H152.58V9.38H138.66V11.78H137.2V8.02Z" fill="#8D0801"/>
<path d="M14.56 29.5C18.7133 29.5 21.9217 30.5617 24.185 32.685C26.4483 34.8083 27.58 37.9 27.58 41.96C27.58 46.02 26.4483 49.1117 24.185 51.235C21.9217 53.3583 18.7133 54.42 14.56 54.42C10.4067 54.42 7.19833 53.37 4.935 51.27C2.695 49.1467 1.575 46.0433 1.575 41.96C1.575 37.8767 2.695 34.785 4.935 32.685C7.19833 30.5617 10.4067 29.5 14.56 29.5ZM14.56 35.275C12.9033 35.275 11.6433 35.7767 10.78 36.78C9.91667 37.7833 9.485 39.1367 9.485 40.84V43.08C9.485 44.7833 9.91667 46.1367 10.78 47.14C11.6433 48.1433 12.9033 48.645 14.56 48.645C16.2167 48.645 17.4767 48.1433 18.34 47.14C19.2267 46.1367 19.67 44.7833 19.67 43.08V40.84C19.67 39.1367 19.2267 37.7833 18.34 36.78C17.4767 35.7767 16.2167 35.275 14.56 35.275ZM36.7864 54L28.2464 29.92H36.5064L41.3364 46.02H41.4764L46.3414 29.92H54.2514L45.7464 54H36.7864ZM57.4826 29.92H78.3076V35.695H65.2176V39.02H76.4176V44.55H65.2176V48.225H78.5526V54H57.4826V29.92ZM105.596 37.305C105.596 38.775 105.2 40.105 104.406 41.295C103.613 42.485 102.458 43.36 100.941 43.92L106.296 54H97.6164L93.3464 45.215H90.4764V54H82.7414V29.92H97.4764C99.203 29.92 100.673 30.2583 101.886 30.935C103.123 31.5883 104.045 32.4867 104.651 33.63C105.281 34.75 105.596 35.975 105.596 37.305ZM97.7214 37.62C97.7214 36.99 97.5114 36.465 97.0914 36.045C96.6714 35.625 96.158 35.415 95.5514 35.415H90.4764V39.86H95.5514C96.158 39.86 96.6714 39.65 97.0914 39.23C97.5114 38.7867 97.7214 38.25 97.7214 37.62ZM128.183 54L119.643 29.92H127.903L132.733 46.02H132.873L137.738 29.92H145.648L137.143 54H128.183ZM149.229 54V29.92H156.964V54H149.229ZM162.483 29.92H183.308V35.695H170.218V39.02H181.418V44.55H170.218V48.225H183.553V54H162.483V29.92ZM205.836 54L202.721 39.335H202.581L199.466 54H190.961L185.326 29.92H193.376L196.141 43.57H196.281L199.011 29.92H206.641L209.546 43.57H209.686L212.276 29.92H219.976L214.341 54H205.836Z" fill="#8D0801"/>
<path d="M81.56 7.3H87.98V8.62H81.56V7.3ZM81.38 14.6H88.2V15.92H81.38V14.6ZM82.36 7.72H83.56V15.28H82.36V7.72ZM76.72 10.88H80.46V12.08H76.72V10.88ZM78.92 17.36L80.08 16.94C80.3333 17.4333 80.5867 17.96 80.84 18.52C81.0933 19.08 81.3133 19.62 81.5 20.14C81.7 20.66 81.8467 21.12 81.94 21.52L80.7 22.04C80.6067 21.6267 80.4667 21.1533 80.28 20.62C80.0933 20.0867 79.88 19.5333 79.64 18.96C79.4 18.3867 79.16 17.8533 78.92 17.36ZM76.74 7.32H81.06V15.78H76.74V14.52H79.82V8.58H76.74V7.32ZM74.82 21.3C75.5667 21.0867 76.4533 20.8133 77.48 20.48C78.5067 20.1467 79.5533 19.8 80.62 19.44L80.84 20.62C79.8933 20.9933 78.9533 21.3533 78.02 21.7C77.0867 22.0467 76.2267 22.3667 75.44 22.66L74.82 21.3ZM76.2 7.32H77.46V21.2L76.2 21.5V7.32ZM69.98 10.44H75.72V11.84H69.98V10.44ZM72.5 6.2H73.9V24.58H72.5V6.2ZM72.44 11.3L73.42 11.6C73.2867 12.3867 73.1133 13.2133 72.9 14.08C72.6867 14.9467 72.4467 15.8 72.18 16.64C71.9133 17.4667 71.62 18.2467 71.3 18.98C70.9933 19.7 70.6733 20.32 70.34 20.84C70.26 20.64 70.14 20.42 69.98 20.18C69.82 19.9267 69.68 19.72 69.56 19.56C69.8667 19.0933 70.1667 18.54 70.46 17.9C70.7533 17.2467 71.0267 16.5467 71.28 15.8C71.5467 15.0533 71.7733 14.3 71.96 13.54C72.16 12.7667 72.32 12.02 72.44 11.3ZM73.84 13.46C73.9467 13.5533 74.1067 13.7133 74.32 13.94C74.5333 14.1667 74.7667 14.42 75.02 14.7C75.2867 14.9667 75.52 15.22 75.72 15.46C75.9333 15.6867 76.08 15.8467 76.16 15.94L75.34 17.22C75.2333 17.0333 75.08 16.8 74.88 16.52C74.6933 16.24 74.4867 15.9467 74.26 15.64C74.0333 15.3333 73.82 15.0533 73.62 14.8C73.42 14.5333 73.26 14.32 73.14 14.16L73.84 13.46ZM85.22 8.02H86.5V10.56C86.5 11.3733 86.46 12.2467 86.38 13.18C86.3133 14.1 86.1667 15.0533 85.94 16.04C85.7133 17.0267 85.3667 18.02 84.9 19.02C84.4467 20.0067 83.8333 20.9733 83.06 21.92C82.3 22.8667 81.34 23.76 80.18 24.6C80.1133 24.5067 80.02 24.4 79.9 24.28C79.78 24.16 79.6533 24.0467 79.52 23.94C79.4 23.8333 79.2867 23.74 79.18 23.66C80.3 22.8733 81.2267 22.04 81.96 21.16C82.7067 20.2667 83.3 19.3533 83.74 18.42C84.18 17.4867 84.5 16.56 84.7 15.64C84.9133 14.72 85.0533 13.8333 85.12 12.98C85.1867 12.1133 85.22 11.3067 85.22 10.56V8.02ZM84.6 16.32H85.84V22.76C85.84 22.8267 85.8467 22.8933 85.86 22.96C85.8867 23.0133 85.9133 23.0533 85.94 23.08C86.02 23.1467 86.1333 23.18 86.28 23.18C86.3467 23.18 86.42 23.18 86.5 23.18C86.5933 23.18 86.68 23.18 86.76 23.18C86.84 23.18 86.9133 23.1733 86.98 23.16C87.06 23.1467 87.12 23.12 87.16 23.08C87.2 23.0533 87.24 23 87.28 22.92C87.32 22.8267 87.3467 22.72 87.36 22.6C87.3867 22.4267 87.4 22.14 87.4 21.74C87.4133 21.34 87.42 20.8933 87.42 20.4C87.54 20.5067 87.7 20.6133 87.9 20.72C88.1 20.8267 88.28 20.9067 88.44 20.96C88.44 21.4533 88.42 21.9467 88.38 22.44C88.3533 22.92 88.32 23.2533 88.28 23.44C88.1867 23.8133 88.0067 24.0867 87.74 24.26C87.5133 24.3933 87.22 24.46 86.86 24.46C86.74 24.46 86.5867 24.46 86.4 24.46C86.2133 24.46 86.0733 24.46 85.98 24.46C85.7933 24.46 85.6067 24.44 85.42 24.4C85.2333 24.36 85.0733 24.28 84.94 24.16C84.8067 24.0267 84.7133 23.86 84.66 23.66C84.62 23.46 84.6 23.14 84.6 22.7V16.32ZM89.92 17.12H108.1V18.38H89.92V17.12ZM90.38 7.06H107.6V8.4H90.38V7.06ZM96.84 15.04L98.32 15.42C97.88 16.1133 97.4 16.8467 96.88 17.62C96.36 18.3933 95.84 19.1467 95.32 19.88C94.8 20.6 94.32 21.2333 93.88 21.78L92.46 21.28C92.9 20.7333 93.38 20.1 93.9 19.38C94.42 18.66 94.94 17.92 95.46 17.16C95.98 16.4 96.44 15.6933 96.84 15.04ZM102.84 17.58L104.28 18C103.853 19.0933 103.253 20.0267 102.48 20.8C101.72 21.5733 100.787 22.2133 99.68 22.72C98.5733 23.2267 97.28 23.6267 95.8 23.92C94.32 24.2267 92.6467 24.4467 90.78 24.58C90.74 24.3667 90.66 24.1333 90.54 23.88C90.4333 23.64 90.3133 23.4333 90.18 23.26C92.5667 23.1267 94.6 22.8667 96.28 22.48C97.9733 22.08 99.3533 21.4867 100.42 20.7C101.5 19.9133 102.307 18.8733 102.84 17.58ZM93.56 21.1L94.3 20C95.9533 20.28 97.5933 20.6133 99.22 21C100.847 21.3733 102.373 21.7733 103.8 22.2C105.24 22.6133 106.473 23.02 107.5 23.42L106.58 24.64C105.567 24.2267 104.367 23.8067 102.98 23.38C101.607 22.9533 100.113 22.5467 98.5 22.16C96.9 21.76 95.2533 21.4067 93.56 21.1ZM95.84 7.56H97.26V14.56H95.84V7.56ZM100.52 7.56H101.94V14.56H100.52V7.56ZM92.8 11.34V14.06H105.28V11.34H92.8ZM91.38 10.1H106.76V15.28H91.38V10.1ZM118.78 16.88H125.14V17.92H118.78V16.88ZM118.8 19.4H125.16V20.44H118.8V19.4ZM116.62 11.16H125.7V12.38H116.62V11.16ZM118.74 22.04H125.56V23.2H118.74V22.04ZM121.5 14.86H122.8V22.48H121.5V14.86ZM119.44 14.36H125.42V15.44H119.44V24.14H118.1V15.38L119.08 14.36H119.44ZM122.2 12.74L123.58 13.04C123.38 13.4 123.18 13.76 122.98 14.12C122.793 14.4667 122.62 14.7733 122.46 15.04L121.4 14.74C121.533 14.4467 121.68 14.1133 121.84 13.74C122 13.3533 122.12 13.02 122.2 12.74ZM118.78 6.2L120.14 6.52C119.873 7.38667 119.52 8.22 119.08 9.02C118.653 9.82 118.193 10.5 117.7 11.06C117.633 10.98 117.527 10.8867 117.38 10.78C117.233 10.6733 117.087 10.5733 116.94 10.48C116.793 10.3733 116.667 10.2933 116.56 10.24C117.04 9.73333 117.467 9.12667 117.84 8.42C118.227 7.7 118.54 6.96 118.78 6.2ZM120.58 8.66L121.9 8.98C121.567 10.1 121.16 11.1733 120.68 12.2C120.213 13.2267 119.687 14.18 119.1 15.06C118.513 15.9267 117.873 16.6867 117.18 17.34C117.127 17.2467 117.04 17.1267 116.92 16.98C116.813 16.8333 116.7 16.6867 116.58 16.54C116.46 16.3933 116.353 16.2733 116.26 16.18C117.233 15.3133 118.093 14.22 118.84 12.9C119.587 11.58 120.167 10.1667 120.58 8.66ZM118.82 8.02H125.36V9.24H118.28L118.82 8.02ZM127.58 11.68V13.76H132.56V11.68H127.58ZM127.58 14.98V17.08H132.56V14.98H127.58ZM127.58 8.38V10.44H132.56V8.38H127.58ZM126.22 7.04H133.96V18.44H126.22V7.04ZM130.5 17.44H131.84V22.54C131.84 22.7533 131.86 22.8933 131.9 22.96C131.953 23.0267 132.073 23.06 132.26 23.06C132.3 23.06 132.393 23.06 132.54 23.06C132.687 23.06 132.833 23.06 132.98 23.06C133.14 23.06 133.253 23.06 133.32 23.06C133.453 23.06 133.547 23 133.6 22.88C133.667 22.76 133.713 22.5133 133.74 22.14C133.78 21.7667 133.807 21.1933 133.82 20.42C133.967 20.54 134.16 20.6533 134.4 20.76C134.64 20.8533 134.853 20.9267 135.04 20.98C135 21.8733 134.927 22.56 134.82 23.04C134.713 23.5333 134.553 23.8667 134.34 24.04C134.127 24.2267 133.84 24.32 133.48 24.32C133.387 24.32 133.24 24.32 133.04 24.32C132.853 24.32 132.66 24.32 132.46 24.32C132.273 24.32 132.14 24.32 132.06 24.32C131.633 24.32 131.307 24.2667 131.08 24.16C130.853 24.0667 130.7 23.8867 130.62 23.62C130.54 23.3533 130.5 22.9933 130.5 22.54V17.44ZM127.74 17.8H129.04C128.947 18.84 128.767 19.8 128.5 20.68C128.247 21.5467 127.833 22.3133 127.26 22.98C126.7 23.6333 125.92 24.18 124.92 24.62C124.84 24.46 124.713 24.2733 124.54 24.06C124.38 23.8467 124.227 23.68 124.08 23.56C124.987 23.2 125.687 22.74 126.18 22.18C126.687 21.62 127.053 20.9733 127.28 20.24C127.507 19.4933 127.66 18.68 127.74 17.8ZM143.18 9.74L144.8 10.04C144.12 11.0133 143.26 11.96 142.22 12.88C141.193 13.7867 139.947 14.6067 138.48 15.34C138.4 15.22 138.3 15.0933 138.18 14.96C138.073 14.8133 137.953 14.68 137.82 14.56C137.687 14.44 137.567 14.34 137.46 14.26C138.847 13.6467 140.02 12.9333 140.98 12.12C141.953 11.3067 142.687 10.5133 143.18 9.74ZM142.96 11.24H149.94V12.42H141.88L142.96 11.24ZM149.5 11.24H149.8L150.06 11.16L151.08 11.78C150.413 12.8333 149.56 13.7867 148.52 14.64C147.493 15.48 146.353 16.2267 145.1 16.88C143.847 17.52 142.54 18.0733 141.18 18.54C139.82 19.0067 138.467 19.3867 137.12 19.68C137.053 19.48 136.947 19.2533 136.8 19C136.653 18.7333 136.513 18.52 136.38 18.36C137.66 18.12 138.953 17.7933 140.26 17.38C141.567 16.9533 142.813 16.4533 144 15.88C145.2 15.2933 146.273 14.6333 147.22 13.9C148.18 13.1667 148.94 12.36 149.5 11.48V11.24ZM142.38 12.16C143.167 13.16 144.2 14.04 145.48 14.8C146.76 15.56 148.207 16.1933 149.82 16.7C151.447 17.1933 153.147 17.5533 154.92 17.78C154.813 17.9 154.7 18.0467 154.58 18.22C154.46 18.38 154.347 18.5467 154.24 18.72C154.133 18.8933 154.04 19.0533 153.96 19.2C152.173 18.92 150.467 18.5 148.84 17.94C147.213 17.3667 145.733 16.6533 144.4 15.8C143.08 14.9333 141.973 13.92 141.08 12.76L142.38 12.16ZM140.16 18.44H151.26V24.56H149.74V19.7H141.62V24.58H140.16V18.44ZM140.88 22.64H150.5V23.9H140.88V22.64ZM144.84 6.2H146.38V8.82H144.84V6.2ZM137.2 8.02H154.12V11.78H152.58V9.38H138.66V11.78H137.2V8.02Z" fill="#350704"/>
<path d="M14.56 29.5C18.7133 29.5 21.9217 30.5617 24.185 32.685C26.4483 34.8083 27.58 37.9 27.58 41.96C27.58 46.02 26.4483 49.1117 24.185 51.235C21.9217 53.3583 18.7133 54.42 14.56 54.42C10.4067 54.42 7.19833 53.37 4.935 51.27C2.695 49.1467 1.575 46.0433 1.575 41.96C1.575 37.8767 2.695 34.785 4.935 32.685C7.19833 30.5617 10.4067 29.5 14.56 29.5ZM14.56 35.275C12.9033 35.275 11.6433 35.7767 10.78 36.78C9.91667 37.7833 9.485 39.1367 9.485 40.84V43.08C9.485 44.7833 9.91667 46.1367 10.78 47.14C11.6433 48.1433 12.9033 48.645 14.56 48.645C16.2167 48.645 17.4767 48.1433 18.34 47.14C19.2267 46.1367 19.67 44.7833 19.67 43.08V40.84C19.67 39.1367 19.2267 37.7833 18.34 36.78C17.4767 35.7767 16.2167 35.275 14.56 35.275ZM36.7864 54L28.2464 29.92H36.5064L41.3364 46.02H41.4764L46.3414 29.92H54.2514L45.7464 54H36.7864ZM57.4826 29.92H78.3076V35.695H65.2176V39.02H76.4176V44.55H65.2176V48.225H78.5526V54H57.4826V29.92ZM105.596 37.305C105.596 38.775 105.2 40.105 104.406 41.295C103.613 42.485 102.458 43.36 100.941 43.92L106.296 54H97.6164L93.3464 45.215H90.4764V54H82.7414V29.92H97.4764C99.203 29.92 100.673 30.2583 101.886 30.935C103.123 31.5883 104.045 32.4867 104.651 33.63C105.281 34.75 105.596 35.975 105.596 37.305ZM97.7214 37.62C97.7214 36.99 97.5114 36.465 97.0914 36.045C96.6714 35.625 96.158 35.415 95.5514 35.415H90.4764V39.86H95.5514C96.158 39.86 96.6714 39.65 97.0914 39.23C97.5114 38.7867 97.7214 38.25 97.7214 37.62ZM128.183 54L119.643 29.92H127.903L132.733 46.02H132.873L137.738 29.92H145.648L137.143 54H128.183ZM149.229 54V29.92H156.964V54H149.229ZM162.483 29.92H183.308V35.695H170.218V39.02H181.418V44.55H170.218V48.225H183.553V54H162.483V29.92ZM205.836 54L202.721 39.335H202.581L199.466 54H190.961L185.326 29.92H193.376L196.141 43.57H196.281L199.011 29.92H206.641L209.546 43.57H209.686L212.276 29.92H219.976L214.341 54H205.836Z" fill="#350704"/>
<path d="M86.56 2.3H92.98V3.62H86.56V2.3ZM86.38 9.6H93.2V10.92H86.38V9.6ZM87.36 2.72H88.56V10.28H87.36V2.72ZM81.72 5.88H85.46V7.08H81.72V5.88ZM83.92 12.36L85.08 11.94C85.3333 12.4333 85.5867 12.96 85.84 13.52C86.0933 14.08 86.3133 14.62 86.5 15.14C86.7 15.66 86.8467 16.12 86.94 16.52L85.7 17.04C85.6067 16.6267 85.4667 16.1533 85.28 15.62C85.0933 15.0867 84.88 14.5333 84.64 13.96C84.4 13.3867 84.16 12.8533 83.92 12.36ZM81.74 2.32H86.06V10.78H81.74V9.52H84.82V3.58H81.74V2.32ZM79.82 16.3C80.5667 16.0867 81.4533 15.8133 82.48 15.48C83.5067 15.1467 84.5533 14.8 85.62 14.44L85.84 15.62C84.8933 15.9933 83.9533 16.3533 83.02 16.7C82.0867 17.0467 81.2267 17.3667 80.44 17.66L79.82 16.3ZM81.2 2.32H82.46V16.2L81.2 16.5V2.32ZM74.98 5.44H80.72V6.84H74.98V5.44ZM77.5 1.2H78.9V19.58H77.5V1.2ZM77.44 6.3L78.42 6.6C78.2867 7.38667 78.1133 8.21333 77.9 9.08C77.6867 9.94667 77.4467 10.8 77.18 11.64C76.9133 12.4667 76.62 13.2467 76.3 13.98C75.9933 14.7 75.6733 15.32 75.34 15.84C75.26 15.64 75.14 15.42 74.98 15.18C74.82 14.9267 74.68 14.72 74.56 14.56C74.8667 14.0933 75.1667 13.54 75.46 12.9C75.7533 12.2467 76.0267 11.5467 76.28 10.8C76.5467 10.0533 76.7733 9.3 76.96 8.54C77.16 7.76667 77.32 7.02 77.44 6.3ZM78.84 8.46C78.9467 8.55333 79.1067 8.71333 79.32 8.94C79.5333 9.16667 79.7667 9.42 80.02 9.7C80.2867 9.96667 80.52 10.22 80.72 10.46C80.9333 10.6867 81.08 10.8467 81.16 10.94L80.34 12.22C80.2333 12.0333 80.08 11.8 79.88 11.52C79.6933 11.24 79.4867 10.9467 79.26 10.64C79.0333 10.3333 78.82 10.0533 78.62 9.8C78.42 9.53333 78.26 9.32 78.14 9.16L78.84 8.46ZM90.22 3.02H91.5V5.56C91.5 6.37333 91.46 7.24667 91.38 8.18C91.3133 9.1 91.1667 10.0533 90.94 11.04C90.7133 12.0267 90.3667 13.02 89.9 14.02C89.4467 15.0067 88.8333 15.9733 88.06 16.92C87.3 17.8667 86.34 18.76 85.18 19.6C85.1133 19.5067 85.02 19.4 84.9 19.28C84.78 19.16 84.6533 19.0467 84.52 18.94C84.4 18.8333 84.2867 18.74 84.18 18.66C85.3 17.8733 86.2267 17.04 86.96 16.16C87.7067 15.2667 88.3 14.3533 88.74 13.42C89.18 12.4867 89.5 11.56 89.7 10.64C89.9133 9.72 90.0533 8.83333 90.12 7.98C90.1867 7.11333 90.22 6.30667 90.22 5.56V3.02ZM89.6 11.32H90.84V17.76C90.84 17.8267 90.8467 17.8933 90.86 17.96C90.8867 18.0133 90.9133 18.0533 90.94 18.08C91.02 18.1467 91.1333 18.18 91.28 18.18C91.3467 18.18 91.42 18.18 91.5 18.18C91.5933 18.18 91.68 18.18 91.76 18.18C91.84 18.18 91.9133 18.1733 91.98 18.16C92.06 18.1467 92.12 18.12 92.16 18.08C92.2 18.0533 92.24 18 92.28 17.92C92.32 17.8267 92.3467 17.72 92.36 17.6C92.3867 17.4267 92.4 17.14 92.4 16.74C92.4133 16.34 92.42 15.8933 92.42 15.4C92.54 15.5067 92.7 15.6133 92.9 15.72C93.1 15.8267 93.28 15.9067 93.44 15.96C93.44 16.4533 93.42 16.9467 93.38 17.44C93.3533 17.92 93.32 18.2533 93.28 18.44C93.1867 18.8133 93.0067 19.0867 92.74 19.26C92.5133 19.3933 92.22 19.46 91.86 19.46C91.74 19.46 91.5867 19.46 91.4 19.46C91.2133 19.46 91.0733 19.46 90.98 19.46C90.7933 19.46 90.6067 19.44 90.42 19.4C90.2333 19.36 90.0733 19.28 89.94 19.16C89.8067 19.0267 89.7133 18.86 89.66 18.66C89.62 18.46 89.6 18.14 89.6 17.7V11.32ZM94.92 12.12H113.1V13.38H94.92V12.12ZM95.38 2.06H112.6V3.4H95.38V2.06ZM101.84 10.04L103.32 10.42C102.88 11.1133 102.4 11.8467 101.88 12.62C101.36 13.3933 100.84 14.1467 100.32 14.88C99.8 15.6 99.32 16.2333 98.88 16.78L97.46 16.28C97.9 15.7333 98.38 15.1 98.9 14.38C99.42 13.66 99.94 12.92 100.46 12.16C100.98 11.4 101.44 10.6933 101.84 10.04ZM107.84 12.58L109.28 13C108.853 14.0933 108.253 15.0267 107.48 15.8C106.72 16.5733 105.787 17.2133 104.68 17.72C103.573 18.2267 102.28 18.6267 100.8 18.92C99.32 19.2267 97.6467 19.4467 95.78 19.58C95.74 19.3667 95.66 19.1333 95.54 18.88C95.4333 18.64 95.3133 18.4333 95.18 18.26C97.5667 18.1267 99.6 17.8667 101.28 17.48C102.973 17.08 104.353 16.4867 105.42 15.7C106.5 14.9133 107.307 13.8733 107.84 12.58ZM98.56 16.1L99.3 15C100.953 15.28 102.593 15.6133 104.22 16C105.847 16.3733 107.373 16.7733 108.8 17.2C110.24 17.6133 111.473 18.02 112.5 18.42L111.58 19.64C110.567 19.2267 109.367 18.8067 107.98 18.38C106.607 17.9533 105.113 17.5467 103.5 17.16C101.9 16.76 100.253 16.4067 98.56 16.1ZM100.84 2.56H102.26V9.56H100.84V2.56ZM105.52 2.56H106.94V9.56H105.52V2.56ZM97.8 6.34V9.06H110.28V6.34H97.8ZM96.38 5.1H111.76V10.28H96.38V5.1ZM123.78 11.88H130.14V12.92H123.78V11.88ZM123.8 14.4H130.16V15.44H123.8V14.4ZM121.62 6.16H130.7V7.38H121.62V6.16ZM123.74 17.04H130.56V18.2H123.74V17.04ZM126.5 9.86H127.8V17.48H126.5V9.86ZM124.44 9.36H130.42V10.44H124.44V19.14H123.1V10.38L124.08 9.36H124.44ZM127.2 7.74L128.58 8.04C128.38 8.4 128.18 8.76 127.98 9.12C127.793 9.46667 127.62 9.77333 127.46 10.04L126.4 9.74C126.533 9.44667 126.68 9.11333 126.84 8.74C127 8.35333 127.12 8.02 127.2 7.74ZM123.78 1.2L125.14 1.52C124.873 2.38667 124.52 3.22 124.08 4.02C123.653 4.82 123.193 5.5 122.7 6.06C122.633 5.98 122.527 5.88667 122.38 5.78C122.233 5.67333 122.087 5.57333 121.94 5.48C121.793 5.37333 121.667 5.29333 121.56 5.24C122.04 4.73333 122.467 4.12667 122.84 3.42C123.227 2.7 123.54 1.96 123.78 1.2ZM125.58 3.66L126.9 3.98C126.567 5.1 126.16 6.17333 125.68 7.2C125.213 8.22667 124.687 9.18 124.1 10.06C123.513 10.9267 122.873 11.6867 122.18 12.34C122.127 12.2467 122.04 12.1267 121.92 11.98C121.813 11.8333 121.7 11.6867 121.58 11.54C121.46 11.3933 121.353 11.2733 121.26 11.18C122.233 10.3133 123.093 9.22 123.84 7.9C124.587 6.58 125.167 5.16667 125.58 3.66ZM123.82 3.02H130.36V4.24H123.28L123.82 3.02ZM132.58 6.68V8.76H137.56V6.68H132.58ZM132.58 9.98V12.08H137.56V9.98H132.58ZM132.58 3.38V5.44H137.56V3.38H132.58ZM131.22 2.04H138.96V13.44H131.22V2.04ZM135.5 12.44H136.84V17.54C136.84 17.7533 136.86 17.8933 136.9 17.96C136.953 18.0267 137.073 18.06 137.26 18.06C137.3 18.06 137.393 18.06 137.54 18.06C137.687 18.06 137.833 18.06 137.98 18.06C138.14 18.06 138.253 18.06 138.32 18.06C138.453 18.06 138.547 18 138.6 17.88C138.667 17.76 138.713 17.5133 138.74 17.14C138.78 16.7667 138.807 16.1933 138.82 15.42C138.967 15.54 139.16 15.6533 139.4 15.76C139.64 15.8533 139.853 15.9267 140.04 15.98C140 16.8733 139.927 17.56 139.82 18.04C139.713 18.5333 139.553 18.8667 139.34 19.04C139.127 19.2267 138.84 19.32 138.48 19.32C138.387 19.32 138.24 19.32 138.04 19.32C137.853 19.32 137.66 19.32 137.46 19.32C137.273 19.32 137.14 19.32 137.06 19.32C136.633 19.32 136.307 19.2667 136.08 19.16C135.853 19.0667 135.7 18.8867 135.62 18.62C135.54 18.3533 135.5 17.9933 135.5 17.54V12.44ZM132.74 12.8H134.04C133.947 13.84 133.767 14.8 133.5 15.68C133.247 16.5467 132.833 17.3133 132.26 17.98C131.7 18.6333 130.92 19.18 129.92 19.62C129.84 19.46 129.713 19.2733 129.54 19.06C129.38 18.8467 129.227 18.68 129.08 18.56C129.987 18.2 130.687 17.74 131.18 17.18C131.687 16.62 132.053 15.9733 132.28 15.24C132.507 14.4933 132.66 13.68 132.74 12.8ZM148.18 4.74L149.8 5.04C149.12 6.01333 148.26 6.96 147.22 7.88C146.193 8.78667 144.947 9.60667 143.48 10.34C143.4 10.22 143.3 10.0933 143.18 9.96C143.073 9.81333 142.953 9.68 142.82 9.56C142.687 9.44 142.567 9.34 142.46 9.26C143.847 8.64667 145.02 7.93333 145.98 7.12C146.953 6.30667 147.687 5.51333 148.18 4.74ZM147.96 6.24H154.94V7.42H146.88L147.96 6.24ZM154.5 6.24H154.8L155.06 6.16L156.08 6.78C155.413 7.83333 154.56 8.78667 153.52 9.64C152.493 10.48 151.353 11.2267 150.1 11.88C148.847 12.52 147.54 13.0733 146.18 13.54C144.82 14.0067 143.467 14.3867 142.12 14.68C142.053 14.48 141.947 14.2533 141.8 14C141.653 13.7333 141.513 13.52 141.38 13.36C142.66 13.12 143.953 12.7933 145.26 12.38C146.567 11.9533 147.813 11.4533 149 10.88C150.2 10.2933 151.273 9.63333 152.22 8.9C153.18 8.16667 153.94 7.36 154.5 6.48V6.24ZM147.38 7.16C148.167 8.16 149.2 9.04 150.48 9.8C151.76 10.56 153.207 11.1933 154.82 11.7C156.447 12.1933 158.147 12.5533 159.92 12.78C159.813 12.9 159.7 13.0467 159.58 13.22C159.46 13.38 159.347 13.5467 159.24 13.72C159.133 13.8933 159.04 14.0533 158.96 14.2C157.173 13.92 155.467 13.5 153.84 12.94C152.213 12.3667 150.733 11.6533 149.4 10.8C148.08 9.93333 146.973 8.92 146.08 7.76L147.38 7.16ZM145.16 13.44H156.26V19.56H154.74V14.7H146.62V19.58H145.16V13.44ZM145.88 17.64H155.5V18.9H145.88V17.64ZM149.84 1.2H151.38V3.82H149.84V1.2ZM142.2 3.02H159.12V6.78H157.58V4.38H143.66V6.78H142.2V3.02Z" fill="#8D0801"/>
<path d="M19.56 24.5C23.7133 24.5 26.9217 25.5617 29.185 27.685C31.4483 29.8083 32.58 32.9 32.58 36.96C32.58 41.02 31.4483 44.1117 29.185 46.235C26.9217 48.3583 23.7133 49.42 19.56 49.42C15.4067 49.42 12.1983 48.37 9.935 46.27C7.695 44.1467 6.575 41.0433 6.575 36.96C6.575 32.8767 7.695 29.785 9.935 27.685C12.1983 25.5617 15.4067 24.5 19.56 24.5ZM19.56 30.275C17.9033 30.275 16.6433 30.7767 15.78 31.78C14.9167 32.7833 14.485 34.1367 14.485 35.84V38.08C14.485 39.7833 14.9167 41.1367 15.78 42.14C16.6433 43.1433 17.9033 43.645 19.56 43.645C21.2167 43.645 22.4767 43.1433 23.34 42.14C24.2267 41.1367 24.67 39.7833 24.67 38.08V35.84C24.67 34.1367 24.2267 32.7833 23.34 31.78C22.4767 30.7767 21.2167 30.275 19.56 30.275ZM41.7864 49L33.2464 24.92H41.5064L46.3364 41.02H46.4764L51.3414 24.92H59.2514L50.7464 49H41.7864ZM62.4826 24.92H83.3076V30.695H70.2176V34.02H81.4176V39.55H70.2176V43.225H83.5526V49H62.4826V24.92ZM110.596 32.305C110.596 33.775 110.2 35.105 109.406 36.295C108.613 37.485 107.458 38.36 105.941 38.92L111.296 49H102.616L98.3464 40.215H95.4764V49H87.7414V24.92H102.476C104.203 24.92 105.673 25.2583 106.886 25.935C108.123 26.5883 109.045 27.4867 109.651 28.63C110.281 29.75 110.596 30.975 110.596 32.305ZM102.721 32.62C102.721 31.99 102.511 31.465 102.091 31.045C101.671 30.625 101.158 30.415 100.551 30.415H95.4764V34.86H100.551C101.158 34.86 101.671 34.65 102.091 34.23C102.511 33.7867 102.721 33.25 102.721 32.62ZM133.183 49L124.643 24.92H132.903L137.733 41.02H137.873L142.738 24.92H150.648L142.143 49H133.183ZM154.229 49V24.92H161.964V49H154.229ZM167.483 24.92H188.308V30.695H175.218V34.02H186.418V39.55H175.218V43.225H188.553V49H167.483V24.92ZM210.836 49L207.721 34.335H207.581L204.466 49H195.961L190.326 24.92H198.376L201.141 38.57H201.281L204.011 24.92H211.641L214.546 38.57H214.686L217.276 24.92H224.976L219.341 49H210.836Z" fill="#8D0801"/>
<path d="M86.56 2.3H92.98V3.62H86.56V2.3ZM86.38 9.6H93.2V10.92H86.38V9.6ZM87.36 2.72H88.56V10.28H87.36V2.72ZM81.72 5.88H85.46V7.08H81.72V5.88ZM83.92 12.36L85.08 11.94C85.3333 12.4333 85.5867 12.96 85.84 13.52C86.0933 14.08 86.3133 14.62 86.5 15.14C86.7 15.66 86.8467 16.12 86.94 16.52L85.7 17.04C85.6067 16.6267 85.4667 16.1533 85.28 15.62C85.0933 15.0867 84.88 14.5333 84.64 13.96C84.4 13.3867 84.16 12.8533 83.92 12.36ZM81.74 2.32H86.06V10.78H81.74V9.52H84.82V3.58H81.74V2.32ZM79.82 16.3C80.5667 16.0867 81.4533 15.8133 82.48 15.48C83.5067 15.1467 84.5533 14.8 85.62 14.44L85.84 15.62C84.8933 15.9933 83.9533 16.3533 83.02 16.7C82.0867 17.0467 81.2267 17.3667 80.44 17.66L79.82 16.3ZM81.2 2.32H82.46V16.2L81.2 16.5V2.32ZM74.98 5.44H80.72V6.84H74.98V5.44ZM77.5 1.2H78.9V19.58H77.5V1.2ZM77.44 6.3L78.42 6.6C78.2867 7.38667 78.1133 8.21333 77.9 9.08C77.6867 9.94667 77.4467 10.8 77.18 11.64C76.9133 12.4667 76.62 13.2467 76.3 13.98C75.9933 14.7 75.6733 15.32 75.34 15.84C75.26 15.64 75.14 15.42 74.98 15.18C74.82 14.9267 74.68 14.72 74.56 14.56C74.8667 14.0933 75.1667 13.54 75.46 12.9C75.7533 12.2467 76.0267 11.5467 76.28 10.8C76.5467 10.0533 76.7733 9.3 76.96 8.54C77.16 7.76667 77.32 7.02 77.44 6.3ZM78.84 8.46C78.9467 8.55333 79.1067 8.71333 79.32 8.94C79.5333 9.16667 79.7667 9.42 80.02 9.7C80.2867 9.96667 80.52 10.22 80.72 10.46C80.9333 10.6867 81.08 10.8467 81.16 10.94L80.34 12.22C80.2333 12.0333 80.08 11.8 79.88 11.52C79.6933 11.24 79.4867 10.9467 79.26 10.64C79.0333 10.3333 78.82 10.0533 78.62 9.8C78.42 9.53333 78.26 9.32 78.14 9.16L78.84 8.46ZM90.22 3.02H91.5V5.56C91.5 6.37333 91.46 7.24667 91.38 8.18C91.3133 9.1 91.1667 10.0533 90.94 11.04C90.7133 12.0267 90.3667 13.02 89.9 14.02C89.4467 15.0067 88.8333 15.9733 88.06 16.92C87.3 17.8667 86.34 18.76 85.18 19.6C85.1133 19.5067 85.02 19.4 84.9 19.28C84.78 19.16 84.6533 19.0467 84.52 18.94C84.4 18.8333 84.2867 18.74 84.18 18.66C85.3 17.8733 86.2267 17.04 86.96 16.16C87.7067 15.2667 88.3 14.3533 88.74 13.42C89.18 12.4867 89.5 11.56 89.7 10.64C89.9133 9.72 90.0533 8.83333 90.12 7.98C90.1867 7.11333 90.22 6.30667 90.22 5.56V3.02ZM89.6 11.32H90.84V17.76C90.84 17.8267 90.8467 17.8933 90.86 17.96C90.8867 18.0133 90.9133 18.0533 90.94 18.08C91.02 18.1467 91.1333 18.18 91.28 18.18C91.3467 18.18 91.42 18.18 91.5 18.18C91.5933 18.18 91.68 18.18 91.76 18.18C91.84 18.18 91.9133 18.1733 91.98 18.16C92.06 18.1467 92.12 18.12 92.16 18.08C92.2 18.0533 92.24 18 92.28 17.92C92.32 17.8267 92.3467 17.72 92.36 17.6C92.3867 17.4267 92.4 17.14 92.4 16.74C92.4133 16.34 92.42 15.8933 92.42 15.4C92.54 15.5067 92.7 15.6133 92.9 15.72C93.1 15.8267 93.28 15.9067 93.44 15.96C93.44 16.4533 93.42 16.9467 93.38 17.44C93.3533 17.92 93.32 18.2533 93.28 18.44C93.1867 18.8133 93.0067 19.0867 92.74 19.26C92.5133 19.3933 92.22 19.46 91.86 19.46C91.74 19.46 91.5867 19.46 91.4 19.46C91.2133 19.46 91.0733 19.46 90.98 19.46C90.7933 19.46 90.6067 19.44 90.42 19.4C90.2333 19.36 90.0733 19.28 89.94 19.16C89.8067 19.0267 89.7133 18.86 89.66 18.66C89.62 18.46 89.6 18.14 89.6 17.7V11.32ZM94.92 12.12H113.1V13.38H94.92V12.12ZM95.38 2.06H112.6V3.4H95.38V2.06ZM101.84 10.04L103.32 10.42C102.88 11.1133 102.4 11.8467 101.88 12.62C101.36 13.3933 100.84 14.1467 100.32 14.88C99.8 15.6 99.32 16.2333 98.88 16.78L97.46 16.28C97.9 15.7333 98.38 15.1 98.9 14.38C99.42 13.66 99.94 12.92 100.46 12.16C100.98 11.4 101.44 10.6933 101.84 10.04ZM107.84 12.58L109.28 13C108.853 14.0933 108.253 15.0267 107.48 15.8C106.72 16.5733 105.787 17.2133 104.68 17.72C103.573 18.2267 102.28 18.6267 100.8 18.92C99.32 19.2267 97.6467 19.4467 95.78 19.58C95.74 19.3667 95.66 19.1333 95.54 18.88C95.4333 18.64 95.3133 18.4333 95.18 18.26C97.5667 18.1267 99.6 17.8667 101.28 17.48C102.973 17.08 104.353 16.4867 105.42 15.7C106.5 14.9133 107.307 13.8733 107.84 12.58ZM98.56 16.1L99.3 15C100.953 15.28 102.593 15.6133 104.22 16C105.847 16.3733 107.373 16.7733 108.8 17.2C110.24 17.6133 111.473 18.02 112.5 18.42L111.58 19.64C110.567 19.2267 109.367 18.8067 107.98 18.38C106.607 17.9533 105.113 17.5467 103.5 17.16C101.9 16.76 100.253 16.4067 98.56 16.1ZM100.84 2.56H102.26V9.56H100.84V2.56ZM105.52 2.56H106.94V9.56H105.52V2.56ZM97.8 6.34V9.06H110.28V6.34H97.8ZM96.38 5.1H111.76V10.28H96.38V5.1ZM123.78 11.88H130.14V12.92H123.78V11.88ZM123.8 14.4H130.16V15.44H123.8V14.4ZM121.62 6.16H130.7V7.38H121.62V6.16ZM123.74 17.04H130.56V18.2H123.74V17.04ZM126.5 9.86H127.8V17.48H126.5V9.86ZM124.44 9.36H130.42V10.44H124.44V19.14H123.1V10.38L124.08 9.36H124.44ZM127.2 7.74L128.58 8.04C128.38 8.4 128.18 8.76 127.98 9.12C127.793 9.46667 127.62 9.77333 127.46 10.04L126.4 9.74C126.533 9.44667 126.68 9.11333 126.84 8.74C127 8.35333 127.12 8.02 127.2 7.74ZM123.78 1.2L125.14 1.52C124.873 2.38667 124.52 3.22 124.08 4.02C123.653 4.82 123.193 5.5 122.7 6.06C122.633 5.98 122.527 5.88667 122.38 5.78C122.233 5.67333 122.087 5.57333 121.94 5.48C121.793 5.37333 121.667 5.29333 121.56 5.24C122.04 4.73333 122.467 4.12667 122.84 3.42C123.227 2.7 123.54 1.96 123.78 1.2ZM125.58 3.66L126.9 3.98C126.567 5.1 126.16 6.17333 125.68 7.2C125.213 8.22667 124.687 9.18 124.1 10.06C123.513 10.9267 122.873 11.6867 122.18 12.34C122.127 12.2467 122.04 12.1267 121.92 11.98C121.813 11.8333 121.7 11.6867 121.58 11.54C121.46 11.3933 121.353 11.2733 121.26 11.18C122.233 10.3133 123.093 9.22 123.84 7.9C124.587 6.58 125.167 5.16667 125.58 3.66ZM123.82 3.02H130.36V4.24H123.28L123.82 3.02ZM132.58 6.68V8.76H137.56V6.68H132.58ZM132.58 9.98V12.08H137.56V9.98H132.58ZM132.58 3.38V5.44H137.56V3.38H132.58ZM131.22 2.04H138.96V13.44H131.22V2.04ZM135.5 12.44H136.84V17.54C136.84 17.7533 136.86 17.8933 136.9 17.96C136.953 18.0267 137.073 18.06 137.26 18.06C137.3 18.06 137.393 18.06 137.54 18.06C137.687 18.06 137.833 18.06 137.98 18.06C138.14 18.06 138.253 18.06 138.32 18.06C138.453 18.06 138.547 18 138.6 17.88C138.667 17.76 138.713 17.5133 138.74 17.14C138.78 16.7667 138.807 16.1933 138.82 15.42C138.967 15.54 139.16 15.6533 139.4 15.76C139.64 15.8533 139.853 15.9267 140.04 15.98C140 16.8733 139.927 17.56 139.82 18.04C139.713 18.5333 139.553 18.8667 139.34 19.04C139.127 19.2267 138.84 19.32 138.48 19.32C138.387 19.32 138.24 19.32 138.04 19.32C137.853 19.32 137.66 19.32 137.46 19.32C137.273 19.32 137.14 19.32 137.06 19.32C136.633 19.32 136.307 19.2667 136.08 19.16C135.853 19.0667 135.7 18.8867 135.62 18.62C135.54 18.3533 135.5 17.9933 135.5 17.54V12.44ZM132.74 12.8H134.04C133.947 13.84 133.767 14.8 133.5 15.68C133.247 16.5467 132.833 17.3133 132.26 17.98C131.7 18.6333 130.92 19.18 129.92 19.62C129.84 19.46 129.713 19.2733 129.54 19.06C129.38 18.8467 129.227 18.68 129.08 18.56C129.987 18.2 130.687 17.74 131.18 17.18C131.687 16.62 132.053 15.9733 132.28 15.24C132.507 14.4933 132.66 13.68 132.74 12.8ZM148.18 4.74L149.8 5.04C149.12 6.01333 148.26 6.96 147.22 7.88C146.193 8.78667 144.947 9.60667 143.48 10.34C143.4 10.22 143.3 10.0933 143.18 9.96C143.073 9.81333 142.953 9.68 142.82 9.56C142.687 9.44 142.567 9.34 142.46 9.26C143.847 8.64667 145.02 7.93333 145.98 7.12C146.953 6.30667 147.687 5.51333 148.18 4.74ZM147.96 6.24H154.94V7.42H146.88L147.96 6.24ZM154.5 6.24H154.8L155.06 6.16L156.08 6.78C155.413 7.83333 154.56 8.78667 153.52 9.64C152.493 10.48 151.353 11.2267 150.1 11.88C148.847 12.52 147.54 13.0733 146.18 13.54C144.82 14.0067 143.467 14.3867 142.12 14.68C142.053 14.48 141.947 14.2533 141.8 14C141.653 13.7333 141.513 13.52 141.38 13.36C142.66 13.12 143.953 12.7933 145.26 12.38C146.567 11.9533 147.813 11.4533 149 10.88C150.2 10.2933 151.273 9.63333 152.22 8.9C153.18 8.16667 153.94 7.36 154.5 6.48V6.24ZM147.38 7.16C148.167 8.16 149.2 9.04 150.48 9.8C151.76 10.56 153.207 11.1933 154.82 11.7C156.447 12.1933 158.147 12.5533 159.92 12.78C159.813 12.9 159.7 13.0467 159.58 13.22C159.46 13.38 159.347 13.5467 159.24 13.72C159.133 13.8933 159.04 14.0533 158.96 14.2C157.173 13.92 155.467 13.5 153.84 12.94C152.213 12.3667 150.733 11.6533 149.4 10.8C148.08 9.93333 146.973 8.92 146.08 7.76L147.38 7.16ZM145.16 13.44H156.26V19.56H154.74V14.7H146.62V19.58H145.16V13.44ZM145.88 17.64H155.5V18.9H145.88V17.64ZM149.84 1.2H151.38V3.82H149.84V1.2ZM142.2 3.02H159.12V6.78H157.58V4.38H143.66V6.78H142.2V3.02Z" fill="#8D0801"/>
<path d="M19.56 24.5C23.7133 24.5 26.9217 25.5617 29.185 27.685C31.4483 29.8083 32.58 32.9 32.58 36.96C32.58 41.02 31.4483 44.1117 29.185 46.235C26.9217 48.3583 23.7133 49.42 19.56 49.42C15.4067 49.42 12.1983 48.37 9.935 46.27C7.695 44.1467 6.575 41.0433 6.575 36.96C6.575 32.8767 7.695 29.785 9.935 27.685C12.1983 25.5617 15.4067 24.5 19.56 24.5ZM19.56 30.275C17.9033 30.275 16.6433 30.7767 15.78 31.78C14.9167 32.7833 14.485 34.1367 14.485 35.84V38.08C14.485 39.7833 14.9167 41.1367 15.78 42.14C16.6433 43.1433 17.9033 43.645 19.56 43.645C21.2167 43.645 22.4767 43.1433 23.34 42.14C24.2267 41.1367 24.67 39.7833 24.67 38.08V35.84C24.67 34.1367 24.2267 32.7833 23.34 31.78C22.4767 30.7767 21.2167 30.275 19.56 30.275ZM41.7864 49L33.2464 24.92H41.5064L46.3364 41.02H46.4764L51.3414 24.92H59.2514L50.7464 49H41.7864ZM62.4826 24.92H83.3076V30.695H70.2176V34.02H81.4176V39.55H70.2176V43.225H83.5526V49H62.4826V24.92ZM110.596 32.305C110.596 33.775 110.2 35.105 109.406 36.295C108.613 37.485 107.458 38.36 105.941 38.92L111.296 49H102.616L98.3464 40.215H95.4764V49H87.7414V24.92H102.476C104.203 24.92 105.673 25.2583 106.886 25.935C108.123 26.5883 109.045 27.4867 109.651 28.63C110.281 29.75 110.596 30.975 110.596 32.305ZM102.721 32.62C102.721 31.99 102.511 31.465 102.091 31.045C101.671 30.625 101.158 30.415 100.551 30.415H95.4764V34.86H100.551C101.158 34.86 101.671 34.65 102.091 34.23C102.511 33.7867 102.721 33.25 102.721 32.62ZM133.183 49L124.643 24.92H132.903L137.733 41.02H137.873L142.738 24.92H150.648L142.143 49H133.183ZM154.229 49V24.92H161.964V49H154.229ZM167.483 24.92H188.308V30.695H175.218V34.02H186.418V39.55H175.218V43.225H188.553V49H167.483V24.92ZM210.836 49L207.721 34.335H207.581L204.466 49H195.961L190.326 24.92H198.376L201.141 38.57H201.281L204.011 24.92H211.641L214.546 38.57H214.686L217.276 24.92H224.976L219.341 49H210.836Z" fill="#8D0801"/>
</svg>
