<svg width="285" height="212" viewBox="0 0 285 212" fill="none" xmlns="http://www.w3.org/2000/svg">
<path d="M32.128 30.4C32.128 30.4853 32.1707 31.1253 32.256 32.32L23.424 33.088V117.44H58.752L61.312 96.96L63.744 97.6L61.824 120H32.128L6.4 120.128L6.528 118.336L13.184 117.44C14.0373 117.355 14.5493 116.8 14.72 115.776V34.752C14.5493 33.728 14.0373 33.1733 13.184 33.088L6.528 32.448L6.4 30.528L32.128 30.4ZM71.981 73.536L71.885 72.096L84.845 72V105.408C84.845 107.904 85.197 110.08 85.901 111.936C86.605 113.728 87.373 115.04 88.205 115.872C89.101 116.704 90.125 117.344 91.277 117.792C93.069 118.432 94.573 118.688 95.789 118.56C99.693 118.496 104.141 116.48 109.133 112.512V75.36C108.877 74.592 108.333 74.144 107.501 74.016L102.509 73.536C102.445 73.152 102.413 72.672 102.413 72.096L115.373 72V115.584C115.501 117.184 116.013 117.984 116.909 117.984L122.669 118.272L122.573 119.712C119.501 120.224 116.301 120.48 112.973 120.48C112.205 120.416 111.373 120 110.477 119.232C109.581 118.4 109.133 117.376 109.133 116.16V114.432C103.309 118.336 97.805 120.288 92.621 120.288C90.445 120.288 87.885 119.744 84.941 118.656C83.021 117.952 81.485 116.64 80.333 114.72C79.181 112.736 78.605 110.272 78.605 107.328V75.456C78.605 75.136 78.413 74.848 78.029 74.592C77.709 74.272 77.357 74.08 76.973 74.016L71.981 73.536ZM175.302 72C175.302 72.064 175.334 72.544 175.398 73.44L171.174 73.92L156.678 96L171.942 118.272L177.126 118.56C177.126 118.624 177.094 119.104 177.03 120L156.39 120.096C156.39 119.52 156.422 119.072 156.486 118.752L162.534 117.984C162.918 117.92 163.174 117.76 163.302 117.504C163.494 117.184 163.494 116.896 163.302 116.64L151.782 98.784L138.246 120L129.03 120.096L128.934 118.656L136.23 117.984L150.246 96.576L149.094 94.656L134.214 72.48H141.894L142.854 74.016L136.23 75.456C135.526 74.56 134.982 74.08 134.598 74.016L130.854 73.536C130.79 73.152 130.758 72.672 130.758 72.096L150.918 72C150.918 72.064 150.95 72.544 151.014 73.44L142.854 74.016L155.142 93.696L168.87 72.096L175.302 72ZM185.81 97.92C185.81 111.744 191.186 118.656 201.938 118.656C204.754 118.656 207.762 118.368 210.962 117.792C214.162 117.152 216.21 116.576 217.106 116.064L217.778 117.024C216.306 117.984 213.874 118.784 210.482 119.424C207.154 120.064 204.082 120.384 201.266 120.384C198.514 120.384 196.018 120.096 193.778 119.52C191.602 118.944 189.362 117.92 187.058 116.448C184.754 114.976 182.93 112.672 181.586 109.536C180.242 106.4 179.57 102.56 179.57 98.016C179.57 89.568 181.746 83.104 186.098 78.624C190.642 73.952 195.922 71.616 201.938 71.616C207.954 71.616 212.53 73.28 215.666 76.608C218.866 79.936 220.466 84.608 220.466 90.624C220.466 91.904 220.37 93.28 220.178 94.752H185.906C185.842 95.456 185.81 96.512 185.81 97.92ZM214.802 89.952C214.802 85.152 213.746 81.248 211.634 78.24C209.522 75.168 206.642 73.632 202.994 73.632C198.258 73.632 194.258 75.712 190.994 79.872C188.37 83.136 186.738 87.488 186.098 92.928H214.706C214.77 92.224 214.802 91.232 214.802 89.952Z" fill="white"/>
<path d="M53.128 84.4C53.128 84.4853 53.1707 85.1253 53.256 86.32L44.424 87.088V171.44H79.752L82.312 150.96L84.744 151.6L82.824 174H53.128L27.4 174.128L27.528 172.336L34.184 171.44C35.0373 171.355 35.5493 170.8 35.72 169.776V88.752C35.5493 87.728 35.0373 87.1733 34.184 87.088L27.528 86.448L27.4 84.528L53.128 84.4ZM113.813 174.384C107.157 174.384 101.749 172.464 97.589 168.624C93.493 164.784 91.445 158.928 91.445 151.056C91.445 143.12 93.621 136.912 97.973 132.432C102.389 127.888 107.925 125.616 114.581 125.616C121.237 125.616 126.645 127.536 130.805 131.376C134.965 135.216 137.045 141.104 137.045 149.04C137.045 156.912 134.837 163.12 130.421 167.664C126.069 172.144 120.533 174.384 113.813 174.384ZM114.485 127.344C109.685 127.344 105.685 129.424 102.485 133.584C99.285 137.744 97.685 143.408 97.685 150.576C97.685 157.68 99.189 163.152 102.197 166.992C105.269 170.768 109.205 172.656 114.005 172.656C118.805 172.656 122.805 170.576 126.005 166.416C129.205 162.256 130.805 156.624 130.805 149.52C130.805 142.416 129.269 136.944 126.197 133.104C123.189 129.264 119.285 127.344 114.485 127.344ZM168.094 174.384C161.438 174.384 156.03 172.464 151.87 168.624C147.774 164.784 145.726 158.928 145.726 151.056C145.726 143.12 147.902 136.912 152.254 132.432C156.67 127.888 162.206 125.616 168.862 125.616C175.518 125.616 180.926 127.536 185.086 131.376C189.246 135.216 191.326 141.104 191.326 149.04C191.326 156.912 189.118 163.12 184.702 167.664C180.35 172.144 174.814 174.384 168.094 174.384ZM168.766 127.344C163.966 127.344 159.966 129.424 156.766 133.584C153.566 137.744 151.966 143.408 151.966 150.576C151.966 157.68 153.47 163.152 156.478 166.992C159.55 170.768 163.486 172.656 168.286 172.656C173.086 172.656 177.086 170.576 180.286 166.416C183.486 162.256 185.086 156.624 185.086 149.52C185.086 142.416 183.55 136.944 180.478 133.104C177.47 129.264 173.566 127.344 168.766 127.344ZM221.7 127.824C217.86 127.888 213.7 129.296 209.22 132.048V172.08L216.42 172.56C216.42 172.624 216.388 173.104 216.324 174L197.124 174.096C197.124 173.52 197.156 173.072 197.22 172.752L202.212 172.08C202.596 172.08 202.852 171.792 202.98 171.216V129.072C202.852 128.624 202.66 128.4 202.404 128.4L196.644 128.208L196.74 126.864C200.196 126.288 202.82 126 204.612 126C206.404 126 207.62 126.416 208.26 127.248C208.9 128.08 209.22 128.976 209.22 129.936V131.088C214.532 127.76 219.396 125.968 223.812 125.712C229.892 125.712 234.02 127.44 236.196 130.896C241.764 127.696 247.012 125.968 251.94 125.712C256.42 125.712 259.812 126.64 262.116 128.496C263.204 129.328 264.132 130.64 264.9 132.432C265.732 134.16 266.148 136.24 266.148 138.672V172.08L273.348 172.56C273.348 172.624 273.316 173.104 273.252 174L254.052 174.096C254.052 173.52 254.084 173.072 254.148 172.752L259.14 172.08C259.524 172.08 259.78 171.792 259.908 171.216V141.072C259.908 138.512 259.588 136.336 258.948 134.544C258.308 132.688 257.604 131.344 256.836 130.512C256.068 129.68 255.108 129.04 253.956 128.592C252.676 128.08 251.3 127.824 249.828 127.824C245.86 127.888 241.54 129.392 236.868 132.336C237.7 134.128 238.116 136.24 238.116 138.672V172.08L245.316 172.56C245.316 172.624 245.284 173.104 245.22 174L225.924 174.096L226.02 172.752L231.012 172.08C231.46 172.016 231.748 171.696 231.876 171.12V140.976C231.876 137.84 231.46 135.28 230.628 133.296C229.796 131.248 228.676 129.904 227.268 129.264C225.348 128.304 223.492 127.824 221.7 127.824Z" fill="white"/>
<path d="M55.342 184.074V193.272C55.342 193.561 55.4167 193.706 55.566 193.706L56.406 193.748L56.392 193.958C55.944 194.033 55.4773 194.07 54.992 194.07C54.8893 194.061 54.7773 194.009 54.656 193.916C54.544 193.823 54.4787 193.701 54.46 193.552C53.928 193.888 53.312 194.056 52.612 194.056C51.9307 194.056 51.3007 193.865 50.722 193.482C50.3953 193.267 50.1293 192.931 49.924 192.474C49.728 192.007 49.63 191.443 49.63 190.78C49.63 189.557 49.9427 188.624 50.568 187.98C51.2307 187.289 51.9867 186.944 52.836 186.944C53.3587 186.944 53.8907 187.079 54.432 187.35V184.004C54.432 183.901 54.404 183.85 54.348 183.85L53.494 183.822L53.508 183.626C54.096 183.542 54.4973 183.5 54.712 183.5C54.936 183.5 55.0947 183.561 55.188 183.682C55.2907 183.803 55.342 183.934 55.342 184.074ZM52.794 193.804C53.3633 193.804 53.9093 193.678 54.432 193.426V187.574C54.0213 187.322 53.6153 187.196 53.214 187.196C52.4113 187.196 51.7627 187.504 51.268 188.12C50.7827 188.736 50.54 189.618 50.54 190.766C50.54 192.791 51.2913 193.804 52.794 193.804ZM58.6474 190.78C58.6474 192.796 59.4314 193.804 60.9994 193.804C61.4101 193.804 61.8488 193.762 62.3154 193.678C62.7821 193.585 63.0808 193.501 63.2114 193.426L63.3094 193.566C63.0948 193.706 62.7401 193.823 62.2454 193.916C61.7601 194.009 61.3121 194.056 60.9014 194.056C60.5001 194.056 60.1361 194.014 59.8094 193.93C59.4921 193.846 59.1654 193.697 58.8294 193.482C58.4934 193.267 58.2274 192.931 58.0314 192.474C57.8354 192.017 57.7374 191.457 57.7374 190.794C57.7374 189.562 58.0548 188.619 58.6894 187.966C59.3521 187.285 60.1221 186.944 60.9994 186.944C61.8768 186.944 62.5441 187.187 63.0014 187.672C63.4681 188.157 63.7014 188.839 63.7014 189.716C63.7014 189.903 63.6874 190.103 63.6594 190.318H58.6614C58.6521 190.421 58.6474 190.575 58.6474 190.78ZM62.8754 189.618C62.8754 188.918 62.7214 188.349 62.4134 187.91C62.1054 187.462 61.6854 187.238 61.1534 187.238C60.4628 187.238 59.8794 187.541 59.4034 188.148C59.0208 188.624 58.7828 189.259 58.6894 190.052H62.8614C62.8708 189.949 62.8754 189.805 62.8754 189.618ZM66.7375 193.832C66.7935 193.832 66.8495 193.827 66.9055 193.818C67.3908 193.809 67.7968 193.659 68.1235 193.37C68.4501 193.071 68.6135 192.637 68.6135 192.068C68.6135 191.508 68.1748 191.102 67.2975 190.85C66.9335 190.747 66.5695 190.635 66.2055 190.514C65.8415 190.393 65.5288 190.201 65.2675 189.94C65.0155 189.679 64.8895 189.338 64.8895 188.918C64.8895 188.321 65.1181 187.845 65.5755 187.49C66.0328 187.126 66.6115 186.944 67.3115 186.944C67.8341 186.944 68.3615 187.037 68.8935 187.224L69.1455 187.322V188.932L68.8795 189.03L68.8235 187.84C68.2821 187.411 67.8295 187.196 67.4655 187.196C66.9521 187.196 66.5461 187.35 66.2475 187.658C65.9488 187.957 65.7995 188.358 65.7995 188.862C65.7995 189.151 65.9255 189.385 66.1775 189.562C66.4388 189.739 66.7515 189.879 67.1155 189.982C67.4795 190.085 67.8435 190.201 68.2075 190.332C68.5715 190.453 68.8795 190.659 69.1315 190.948C69.3928 191.228 69.5235 191.597 69.5235 192.054C69.5235 192.67 69.2901 193.16 68.8235 193.524C68.3661 193.879 67.7128 194.056 66.8635 194.056C66.0141 194.056 65.3095 193.855 64.7495 193.454V191.844L65.0015 191.746L65.0715 192.936C65.2021 193.179 65.4355 193.389 65.7715 193.566C66.1168 193.743 66.4388 193.832 66.7375 193.832ZM76.8136 193.832C76.8696 193.832 76.9256 193.827 76.9816 193.818C77.467 193.809 77.873 193.659 78.1996 193.37C78.5263 193.071 78.6896 192.637 78.6896 192.068C78.6896 191.508 78.251 191.102 77.3736 190.85C77.0096 190.747 76.6456 190.635 76.2816 190.514C75.9176 190.393 75.605 190.201 75.3436 189.94C75.0916 189.679 74.9656 189.338 74.9656 188.918C74.9656 188.321 75.1943 187.845 75.6516 187.49C76.109 187.126 76.6876 186.944 77.3876 186.944C77.9103 186.944 78.4376 187.037 78.9696 187.224L79.2216 187.322V188.932L78.9556 189.03L78.8996 187.84C78.3583 187.411 77.9056 187.196 77.5416 187.196C77.0283 187.196 76.6223 187.35 76.3236 187.658C76.025 187.957 75.8756 188.358 75.8756 188.862C75.8756 189.151 76.0016 189.385 76.2536 189.562C76.515 189.739 76.8276 189.879 77.1916 189.982C77.5556 190.085 77.9196 190.201 78.2836 190.332C78.6476 190.453 78.9556 190.659 79.2076 190.948C79.469 191.228 79.5996 191.597 79.5996 192.054C79.5996 192.67 79.3663 193.16 78.8996 193.524C78.4423 193.879 77.789 194.056 76.9396 194.056C76.0903 194.056 75.3856 193.855 74.8256 193.454V191.844L75.0776 191.746L75.1476 192.936C75.2783 193.179 75.5116 193.389 75.8476 193.566C76.193 193.743 76.515 193.832 76.8136 193.832ZM83.5958 193.734L84.1418 193.706L84.1838 193.846C84.1744 193.846 84.1091 193.86 83.9878 193.888C83.7078 193.953 83.3951 193.986 83.0498 193.986C82.7324 193.967 82.4431 193.916 82.1818 193.832C81.9204 193.739 81.6778 193.552 81.4538 193.272C81.2298 192.983 81.1178 192.614 81.1178 192.166V187.252H80.4038L80.5158 187.14L81.1318 187.014L81.2438 185.67L82.0278 185.6V187H83.7218V187.252H82.0278V191.928C82.0278 192.637 82.1771 193.118 82.4758 193.37C82.7744 193.613 83.1478 193.734 83.5958 193.734ZM86.6261 197.5L86.5981 197.304L87.9001 197.136C87.9654 197.127 88.0074 197.061 88.0261 196.94L88.4881 194H88.0261L85.6881 187.49L85.6741 187.476C85.6274 187.364 85.5528 187.299 85.4501 187.28L84.8201 187.224C84.8108 187.168 84.8061 187.098 84.8061 187.014L87.7461 187C87.7461 187.009 87.7508 187.079 87.7601 187.21L86.6681 187.294L88.7401 193.636L91.3441 187.476C91.3721 187.42 91.3534 187.373 91.2881 187.336C91.2321 187.299 91.1714 187.275 91.1061 187.266L90.4901 187.224C90.4808 187.168 90.4761 187.098 90.4761 187.014L93.0381 187C93.0381 187.009 93.0428 187.079 93.0521 187.21L91.8061 187.336L88.8661 194L88.3341 197.206L89.5521 197.276C89.5708 197.407 89.5801 197.477 89.5801 197.486L86.6261 197.5ZM93.5233 194.014L93.5373 193.818L94.2653 193.72C94.3306 193.711 94.3726 193.664 94.3913 193.58V184.004C94.3913 183.901 94.3633 183.85 94.3073 183.85L93.4533 183.822L93.4673 183.626C94.0553 183.542 94.4566 183.5 94.6713 183.5C94.8953 183.5 95.0539 183.561 95.1473 183.682C95.2499 183.803 95.3013 183.934 95.3013 184.074V193.72L96.3513 193.79C96.3513 193.799 96.3466 193.869 96.3373 194L93.5233 194.014ZM98.4463 190.78C98.4463 192.796 99.2303 193.804 100.798 193.804C101.209 193.804 101.648 193.762 102.114 193.678C102.581 193.585 102.88 193.501 103.01 193.426L103.108 193.566C102.894 193.706 102.539 193.823 102.044 193.916C101.559 194.009 101.111 194.056 100.7 194.056C100.299 194.056 99.9349 194.014 99.6083 193.93C99.2909 193.846 98.9643 193.697 98.6283 193.482C98.2923 193.267 98.0263 192.931 97.8302 192.474C97.6343 192.017 97.5363 191.457 97.5363 190.794C97.5363 189.562 97.8536 188.619 98.4883 187.966C99.1509 187.285 99.9209 186.944 100.798 186.944C101.676 186.944 102.343 187.187 102.8 187.672C103.267 188.157 103.5 188.839 103.5 189.716C103.5 189.903 103.486 190.103 103.458 190.318H98.4603C98.4509 190.421 98.4463 190.575 98.4463 190.78ZM102.674 189.618C102.674 188.918 102.52 188.349 102.212 187.91C101.904 187.462 101.484 187.238 100.952 187.238C100.262 187.238 99.6783 187.541 99.2023 188.148C98.8196 188.624 98.5816 189.259 98.4883 190.052H102.66C102.67 189.949 102.674 189.805 102.674 189.618ZM106.536 193.832C106.592 193.832 106.648 193.827 106.704 193.818C107.19 193.809 107.596 193.659 107.922 193.37C108.249 193.071 108.412 192.637 108.412 192.068C108.412 191.508 107.974 191.102 107.096 190.85C106.732 190.747 106.368 190.635 106.004 190.514C105.64 190.393 105.328 190.201 105.066 189.94C104.814 189.679 104.688 189.338 104.688 188.918C104.688 188.321 104.917 187.845 105.374 187.49C105.832 187.126 106.41 186.944 107.11 186.944C107.633 186.944 108.16 187.037 108.692 187.224L108.944 187.322V188.932L108.678 189.03L108.622 187.84C108.081 187.411 107.628 187.196 107.264 187.196C106.751 187.196 106.345 187.35 106.046 187.658C105.748 187.957 105.598 188.358 105.598 188.862C105.598 189.151 105.724 189.385 105.976 189.562C106.238 189.739 106.55 189.879 106.914 189.982C107.278 190.085 107.642 190.201 108.006 190.332C108.37 190.453 108.678 190.659 108.93 190.948C109.192 191.228 109.322 191.597 109.322 192.054C109.322 192.67 109.089 193.16 108.622 193.524C108.165 193.879 107.512 194.056 106.662 194.056C105.813 194.056 105.108 193.855 104.548 193.454V191.844L104.8 191.746L104.87 192.936C105.001 193.179 105.234 193.389 105.57 193.566C105.916 193.743 106.238 193.832 106.536 193.832ZM115.604 190.78C115.604 192.796 116.388 193.804 117.956 193.804C118.367 193.804 118.806 193.762 119.272 193.678C119.739 193.585 120.038 193.501 120.168 193.426L120.266 193.566C120.052 193.706 119.697 193.823 119.202 193.916C118.717 194.009 118.269 194.056 117.858 194.056C117.457 194.056 117.093 194.014 116.766 193.93C116.449 193.846 116.122 193.697 115.786 193.482C115.45 193.267 115.184 192.931 114.988 192.474C114.792 192.017 114.694 191.457 114.694 190.794C114.694 189.562 115.012 188.619 115.646 187.966C116.309 187.285 117.079 186.944 117.956 186.944C118.834 186.944 119.501 187.187 119.958 187.672C120.425 188.157 120.658 188.839 120.658 189.716C120.658 189.903 120.644 190.103 120.616 190.318H115.618C115.609 190.421 115.604 190.575 115.604 190.78ZM119.832 189.618C119.832 188.918 119.678 188.349 119.37 187.91C119.062 187.462 118.642 187.238 118.11 187.238C117.42 187.238 116.836 187.541 116.36 188.148C115.978 188.624 115.74 189.259 115.646 190.052H119.818C119.828 189.949 119.832 189.805 119.832 189.618ZM119.902 183.5L120.322 183.598L118.656 185.67L118.446 185.558L119.902 183.5ZM121.783 194.014L121.797 193.818L122.525 193.72C122.59 193.711 122.632 193.664 122.651 193.58V184.004C122.651 183.901 122.623 183.85 122.567 183.85L121.713 183.822L121.727 183.626C122.315 183.542 122.716 183.5 122.931 183.5C123.155 183.5 123.314 183.561 123.407 183.682C123.51 183.803 123.561 183.934 123.561 184.074V193.72L124.611 193.79C124.611 193.799 124.606 193.869 124.597 194L121.783 194.014ZM126.706 190.78C126.706 192.796 127.49 193.804 129.058 193.804C129.469 193.804 129.907 193.762 130.374 193.678C130.841 193.585 131.139 193.501 131.27 193.426L131.368 193.566C131.153 193.706 130.799 193.823 130.304 193.916C129.819 194.009 129.371 194.056 128.96 194.056C128.559 194.056 128.195 194.014 127.868 193.93C127.551 193.846 127.224 193.697 126.888 193.482C126.552 193.267 126.286 192.931 126.09 192.474C125.894 192.017 125.796 191.457 125.796 190.794C125.796 189.562 126.113 188.619 126.748 187.966C127.411 187.285 128.181 186.944 129.058 186.944C129.935 186.944 130.603 187.187 131.06 187.672C131.527 188.157 131.76 188.839 131.76 189.716C131.76 189.903 131.746 190.103 131.718 190.318H126.72C126.711 190.421 126.706 190.575 126.706 190.78ZM130.934 189.618C130.934 188.918 130.78 188.349 130.472 187.91C130.164 187.462 129.744 187.238 129.212 187.238C128.521 187.238 127.938 187.541 127.462 188.148C127.079 188.624 126.841 189.259 126.748 190.052H130.92C130.929 189.949 130.934 189.805 130.934 189.618ZM131.004 183.5L131.424 183.598L129.758 185.67L129.548 185.558L131.004 183.5ZM132.685 195.442C132.685 194.565 133.217 193.813 134.281 193.188C133.824 192.936 133.595 192.619 133.595 192.236C133.595 191.844 133.782 191.541 134.155 191.326C133.427 190.999 133.063 190.309 133.063 189.254C133.063 188.535 133.334 187.971 133.875 187.56C134.417 187.149 135.107 186.944 135.947 186.944C136.339 186.944 136.713 186.991 137.067 187.084L139.405 186.944L139.377 187.476L137.711 187.378C138.318 187.77 138.621 188.363 138.621 189.156C138.621 189.949 138.365 190.556 137.851 190.976C137.338 191.396 136.675 191.606 135.863 191.606C135.322 191.606 134.879 191.559 134.533 191.466C134.375 191.643 134.295 191.849 134.295 192.082C134.295 192.502 134.463 192.805 134.799 192.992C135.163 193.207 135.807 193.393 136.731 193.552C136.946 193.589 137.1 193.622 137.193 193.65C137.296 193.669 137.441 193.697 137.627 193.734C137.814 193.771 137.954 193.809 138.047 193.846C138.141 193.874 138.257 193.921 138.397 193.986C138.547 194.042 138.659 194.098 138.733 194.154C138.808 194.21 138.892 194.28 138.985 194.364C139.079 194.448 139.149 194.541 139.195 194.644C139.298 194.887 139.349 195.167 139.349 195.484C139.349 195.811 139.251 196.119 139.055 196.408C138.859 196.697 138.589 196.917 138.243 197.066C137.571 197.355 136.801 197.5 135.933 197.5C134.785 197.5 133.955 197.295 133.441 196.884C132.937 196.483 132.685 196.002 132.685 195.442ZM134.505 193.3C133.899 193.963 133.595 194.611 133.595 195.246C133.595 195.881 133.777 196.371 134.141 196.716C134.515 197.071 135.079 197.248 135.835 197.248C136.591 197.248 137.212 197.103 137.697 196.814C138.192 196.525 138.439 196.063 138.439 195.428C138.439 194.924 138.281 194.555 137.963 194.322C137.655 194.089 137.217 193.916 136.647 193.804C135.499 193.589 134.785 193.421 134.505 193.3ZM135.905 187.126C135.327 187.126 134.86 187.308 134.505 187.672C134.151 188.027 133.973 188.563 133.973 189.282C133.973 190.001 134.109 190.537 134.379 190.892C134.65 191.247 135.089 191.424 135.695 191.424C136.311 191.424 136.792 191.223 137.137 190.822C137.492 190.411 137.669 189.861 137.669 189.17C137.669 187.807 137.081 187.126 135.905 187.126ZM144.479 193.468H144.437C143.597 193.86 142.781 194.056 141.987 194.056C140.746 194.056 140.088 193.566 140.013 192.586C140.004 192.521 139.999 192.46 139.999 192.404C139.999 191.685 140.471 191.205 141.413 190.962C141.973 190.841 142.981 190.696 144.437 190.528V189.296C144.437 188.904 144.391 188.568 144.297 188.288C144.204 188.008 144.101 187.803 143.989 187.672C143.877 187.532 143.733 187.425 143.555 187.35C143.331 187.257 143.079 187.21 142.799 187.21C142.529 187.21 142.216 187.28 141.861 187.42C141.348 187.635 140.891 187.905 140.489 188.232L140.433 189.324L140.167 189.394V187.7L140.307 187.644C141.035 187.327 141.591 187.135 141.973 187.07C142.356 187.005 142.636 186.972 142.813 186.972C142.991 186.963 143.159 186.963 143.317 186.972C143.485 186.981 143.7 187.023 143.961 187.098C144.223 187.173 144.447 187.28 144.633 187.42C144.829 187.551 144.997 187.751 145.137 188.022C145.277 188.293 145.347 188.615 145.347 188.988V193.272C145.347 193.561 145.422 193.706 145.571 193.706L146.425 193.748L146.411 193.958C145.889 194.033 145.422 194.07 145.011 194.07C144.899 194.061 144.783 194.005 144.661 193.902C144.54 193.79 144.479 193.645 144.479 193.468ZM142.239 193.832C142.93 193.832 143.663 193.589 144.437 193.104V190.794C143.037 190.841 142.155 190.925 141.791 191.046C141.437 191.158 141.189 191.34 141.049 191.592C140.919 191.835 140.853 192.077 140.853 192.32C140.853 192.367 140.853 192.413 140.853 192.46C140.881 192.945 141.026 193.295 141.287 193.51C141.549 193.725 141.866 193.832 142.239 193.832ZM146.922 194.014L146.936 193.818L147.664 193.72C147.748 193.711 147.79 193.645 147.79 193.524V187.462C147.772 187.387 147.744 187.35 147.706 187.35L146.852 187.322L146.866 187.126C147.454 187.042 147.851 187 148.056 187C148.43 187 148.64 187.163 148.686 187.49H148.7V187.784C149.466 187.261 150.198 186.986 150.898 186.958C151.58 186.958 152.098 187.093 152.452 187.364C152.611 187.485 152.751 187.677 152.872 187.938C153.003 188.19 153.068 188.493 153.068 188.848V193.72L154.118 193.79C154.118 193.799 154.114 193.869 154.104 194L151.304 194.014C151.304 193.93 151.309 193.865 151.318 193.818L152.046 193.72C152.121 193.711 152.158 193.645 152.158 193.524V189.198C152.158 188.825 152.107 188.507 152.004 188.246C151.911 187.985 151.804 187.793 151.682 187.672C151.561 187.551 151.412 187.457 151.234 187.392C151.029 187.317 150.814 187.28 150.59 187.28C150.03 187.289 149.4 187.509 148.7 187.938V193.72L149.75 193.79C149.75 193.799 149.746 193.869 149.736 194L146.922 194.014ZM157.889 193.734L158.435 193.706L158.477 193.846C158.467 193.846 158.402 193.86 158.281 193.888C158.001 193.953 157.688 193.986 157.343 193.986C157.025 193.967 156.736 193.916 156.475 193.832C156.213 193.739 155.971 193.552 155.747 193.272C155.523 192.983 155.411 192.614 155.411 192.166V187.252H154.697L154.809 187.14L155.425 187.014L155.537 185.67L156.321 185.6V187H158.015V187.252H156.321V191.928C156.321 192.637 156.47 193.118 156.769 193.37C157.067 193.613 157.441 193.734 157.889 193.734ZM161.347 193.832C161.403 193.832 161.459 193.827 161.515 193.818C162 193.809 162.406 193.659 162.733 193.37C163.059 193.071 163.223 192.637 163.223 192.068C163.223 191.508 162.784 191.102 161.907 190.85C161.543 190.747 161.179 190.635 160.815 190.514C160.451 190.393 160.138 190.201 159.877 189.94C159.625 189.679 159.499 189.338 159.499 188.918C159.499 188.321 159.727 187.845 160.185 187.49C160.642 187.126 161.221 186.944 161.921 186.944C162.443 186.944 162.971 187.037 163.503 187.224L163.755 187.322V188.932L163.489 189.03L163.433 187.84C162.891 187.411 162.439 187.196 162.075 187.196C161.561 187.196 161.155 187.35 160.857 187.658C160.558 187.957 160.409 188.358 160.409 188.862C160.409 189.151 160.535 189.385 160.787 189.562C161.048 189.739 161.361 189.879 161.725 189.982C162.089 190.085 162.453 190.201 162.817 190.332C163.181 190.453 163.489 190.659 163.741 190.948C164.002 191.228 164.133 191.597 164.133 192.054C164.133 192.67 163.899 193.16 163.433 193.524C162.975 193.879 162.322 194.056 161.473 194.056C160.623 194.056 159.919 193.855 159.359 193.454V191.844L159.611 191.746L159.681 192.936C159.811 193.179 160.045 193.389 160.381 193.566C160.726 193.743 161.048 193.832 161.347 193.832ZM171.549 184.074V187.868C172.772 187.028 173.878 186.767 174.867 187.084C175.091 187.149 175.282 187.247 175.441 187.378C175.609 187.499 175.754 187.686 175.875 187.938C175.996 188.19 176.057 188.493 176.057 188.848V193.72L177.107 193.79C177.107 193.799 177.102 193.869 177.093 194L174.293 194.014C174.293 193.93 174.298 193.865 174.307 193.818L175.035 193.72C175.091 193.72 175.128 193.678 175.147 193.594V189.212C175.147 188.848 175.096 188.535 174.993 188.274C174.9 188.003 174.788 187.807 174.657 187.686C174.526 187.565 174.372 187.471 174.195 187.406C173.952 187.313 173.738 187.275 173.551 187.294C172.944 187.313 172.277 187.56 171.549 188.036V193.72L172.599 193.79C172.599 193.799 172.594 193.869 172.585 194L169.785 194.014C169.785 193.93 169.79 193.865 169.799 193.818L170.527 193.72C170.602 193.711 170.639 193.645 170.639 193.524V184.004C170.639 183.901 170.611 183.85 170.555 183.85L169.715 183.822L169.729 183.626C170.233 183.542 170.616 183.5 170.877 183.5C171.138 183.5 171.316 183.561 171.409 183.682C171.502 183.803 171.549 183.934 171.549 184.074ZM182.145 193.468H182.103C181.263 193.86 180.447 194.056 179.653 194.056C178.412 194.056 177.754 193.566 177.679 192.586C177.67 192.521 177.665 192.46 177.665 192.404C177.665 191.685 178.137 191.205 179.079 190.962C179.639 190.841 180.647 190.696 182.103 190.528V189.296C182.103 188.904 182.057 188.568 181.963 188.288C181.87 188.008 181.767 187.803 181.655 187.672C181.543 187.532 181.399 187.425 181.221 187.35C180.997 187.257 180.745 187.21 180.465 187.21C180.195 187.21 179.882 187.28 179.527 187.42C179.014 187.635 178.557 187.905 178.155 188.232L178.099 189.324L177.833 189.394V187.7L177.973 187.644C178.701 187.327 179.257 187.135 179.639 187.07C180.022 187.005 180.302 186.972 180.479 186.972C180.657 186.963 180.825 186.963 180.983 186.972C181.151 186.981 181.366 187.023 181.627 187.098C181.889 187.173 182.113 187.28 182.299 187.42C182.495 187.551 182.663 187.751 182.803 188.022C182.943 188.293 183.013 188.615 183.013 188.988V193.272C183.013 193.561 183.088 193.706 183.237 193.706L184.091 193.748L184.077 193.958C183.555 194.033 183.088 194.07 182.677 194.07C182.565 194.061 182.449 194.005 182.327 193.902C182.206 193.79 182.145 193.645 182.145 193.468ZM179.905 193.832C180.596 193.832 181.329 193.589 182.103 193.104V190.794C180.703 190.841 179.821 190.925 179.457 191.046C179.103 191.158 178.855 191.34 178.715 191.592C178.585 191.835 178.519 192.077 178.519 192.32C178.519 192.367 178.519 192.413 178.519 192.46C178.547 192.945 178.692 193.295 178.953 193.51C179.215 193.725 179.532 193.832 179.905 193.832ZM184.672 187.224L184.658 187.014L186.548 187V191.872C186.548 192.236 186.6 192.553 186.702 192.824C186.805 193.085 186.917 193.277 187.038 193.398C187.169 193.519 187.318 193.613 187.486 193.678C187.748 193.771 187.967 193.809 188.144 193.79C188.714 193.781 189.362 193.487 190.09 192.908V187.49C190.053 187.378 189.974 187.313 189.852 187.294L189.124 187.224C189.115 187.168 189.11 187.098 189.11 187.014L191 187V193.356C191.019 193.589 191.094 193.706 191.224 193.706L192.064 193.748L192.05 193.958C191.602 194.033 191.136 194.07 190.65 194.07C190.538 194.061 190.417 194 190.286 193.888C190.156 193.767 190.09 193.617 190.09 193.44V193.188C189.241 193.757 188.438 194.042 187.682 194.042C187.365 194.042 186.992 193.963 186.562 193.804C186.282 193.701 186.058 193.51 185.89 193.23C185.722 192.941 185.638 192.581 185.638 192.152V187.504C185.638 187.457 185.61 187.415 185.554 187.378C185.508 187.331 185.456 187.303 185.4 187.294L184.672 187.224ZM195.828 193.734L196.374 193.706L196.416 193.846C196.407 193.846 196.342 193.86 196.22 193.888C195.94 193.953 195.628 193.986 195.282 193.986C194.965 193.967 194.676 193.916 194.414 193.832C194.153 193.739 193.91 193.552 193.686 193.272C193.462 192.983 193.35 192.614 193.35 192.166V187.252H192.636L192.748 187.14L193.364 187.014L193.476 185.67L194.26 185.6V187H195.954V187.252H194.26V191.928C194.26 192.637 194.41 193.118 194.708 193.37C195.007 193.613 195.38 193.734 195.828 193.734ZM207.496 184.074V193.272C207.496 193.561 207.571 193.706 207.72 193.706L208.56 193.748L208.546 193.958C208.098 194.033 207.632 194.07 207.146 194.07C207.044 194.061 206.932 194.009 206.81 193.916C206.698 193.823 206.633 193.701 206.614 193.552C206.082 193.888 205.466 194.056 204.766 194.056C204.085 194.056 203.455 193.865 202.876 193.482C202.55 193.267 202.284 192.931 202.078 192.474C201.882 192.007 201.784 191.443 201.784 190.78C201.784 189.557 202.097 188.624 202.722 187.98C203.385 187.289 204.141 186.944 204.99 186.944C205.513 186.944 206.045 187.079 206.586 187.35V184.004C206.586 183.901 206.558 183.85 206.502 183.85L205.648 183.822L205.662 183.626C206.25 183.542 206.652 183.5 206.866 183.5C207.09 183.5 207.249 183.561 207.342 183.682C207.445 183.803 207.496 183.934 207.496 184.074ZM204.948 193.804C205.518 193.804 206.064 193.678 206.586 193.426V187.574C206.176 187.322 205.77 187.196 205.368 187.196C204.566 187.196 203.917 187.504 203.422 188.12C202.937 188.736 202.694 189.618 202.694 190.766C202.694 192.791 203.446 193.804 204.948 193.804ZM210.802 190.78C210.802 192.796 211.586 193.804 213.154 193.804C213.564 193.804 214.003 193.762 214.47 193.678C214.936 193.585 215.235 193.501 215.366 193.426L215.464 193.566C215.249 193.706 214.894 193.823 214.4 193.916C213.914 194.009 213.466 194.056 213.056 194.056C212.654 194.056 212.29 194.014 211.964 193.93C211.646 193.846 211.32 193.697 210.984 193.482C210.648 193.267 210.382 192.931 210.186 192.474C209.99 192.017 209.892 191.457 209.892 190.794C209.892 189.562 210.209 188.619 210.844 187.966C211.506 187.285 212.276 186.944 213.154 186.944C214.031 186.944 214.698 187.187 215.156 187.672C215.622 188.157 215.856 188.839 215.856 189.716C215.856 189.903 215.842 190.103 215.814 190.318H210.816C210.806 190.421 210.802 190.575 210.802 190.78ZM215.03 189.618C215.03 188.918 214.876 188.349 214.568 187.91C214.26 187.462 213.84 187.238 213.308 187.238C212.617 187.238 212.034 187.541 211.558 188.148C211.175 188.624 210.937 189.259 210.844 190.052H215.016C215.025 189.949 215.03 189.805 215.03 189.618ZM221.101 195.442C221.101 194.565 221.633 193.813 222.697 193.188C222.24 192.936 222.011 192.619 222.011 192.236C222.011 191.844 222.198 191.541 222.571 191.326C221.843 190.999 221.479 190.309 221.479 189.254C221.479 188.535 221.75 187.971 222.291 187.56C222.833 187.149 223.523 186.944 224.363 186.944C224.755 186.944 225.129 186.991 225.483 187.084L227.821 186.944L227.793 187.476L226.127 187.378C226.734 187.77 227.037 188.363 227.037 189.156C227.037 189.949 226.781 190.556 226.267 190.976C225.754 191.396 225.091 191.606 224.279 191.606C223.738 191.606 223.295 191.559 222.949 191.466C222.791 191.643 222.711 191.849 222.711 192.082C222.711 192.502 222.879 192.805 223.215 192.992C223.579 193.207 224.223 193.393 225.147 193.552C225.362 193.589 225.516 193.622 225.609 193.65C225.712 193.669 225.857 193.697 226.043 193.734C226.23 193.771 226.37 193.809 226.463 193.846C226.557 193.874 226.673 193.921 226.813 193.986C226.963 194.042 227.075 194.098 227.149 194.154C227.224 194.21 227.308 194.28 227.401 194.364C227.495 194.448 227.565 194.541 227.611 194.644C227.714 194.887 227.765 195.167 227.765 195.484C227.765 195.811 227.667 196.119 227.471 196.408C227.275 196.697 227.005 196.917 226.659 197.066C225.987 197.355 225.217 197.5 224.349 197.5C223.201 197.5 222.371 197.295 221.857 196.884C221.353 196.483 221.101 196.002 221.101 195.442ZM222.921 193.3C222.315 193.963 222.011 194.611 222.011 195.246C222.011 195.881 222.193 196.371 222.557 196.716C222.931 197.071 223.495 197.248 224.251 197.248C225.007 197.248 225.628 197.103 226.113 196.814C226.608 196.525 226.855 196.063 226.855 195.428C226.855 194.924 226.697 194.555 226.379 194.322C226.071 194.089 225.633 193.916 225.063 193.804C223.915 193.589 223.201 193.421 222.921 193.3ZM224.321 187.126C223.743 187.126 223.276 187.308 222.921 187.672C222.567 188.027 222.389 188.563 222.389 189.282C222.389 190.001 222.525 190.537 222.795 190.892C223.066 191.247 223.505 191.424 224.111 191.424C224.727 191.424 225.208 191.223 225.553 190.822C225.908 190.411 226.085 189.861 226.085 189.17C226.085 187.807 225.497 187.126 224.321 187.126ZM232.895 193.468H232.853C232.013 193.86 231.197 194.056 230.403 194.056C229.162 194.056 228.504 193.566 228.429 192.586C228.42 192.521 228.415 192.46 228.415 192.404C228.415 191.685 228.887 191.205 229.829 190.962C230.389 190.841 231.397 190.696 232.853 190.528V189.296C232.853 188.904 232.807 188.568 232.713 188.288C232.62 188.008 232.517 187.803 232.405 187.672C232.293 187.532 232.149 187.425 231.971 187.35C231.747 187.257 231.495 187.21 231.215 187.21C230.945 187.21 230.632 187.28 230.277 187.42C229.764 187.635 229.307 187.905 228.905 188.232L228.849 189.324L228.583 189.394V187.7L228.723 187.644C229.451 187.327 230.007 187.135 230.389 187.07C230.772 187.005 231.052 186.972 231.229 186.972C231.407 186.963 231.575 186.963 231.733 186.972C231.901 186.981 232.116 187.023 232.377 187.098C232.639 187.173 232.863 187.28 233.049 187.42C233.245 187.551 233.413 187.751 233.553 188.022C233.693 188.293 233.763 188.615 233.763 188.988V193.272C233.763 193.561 233.838 193.706 233.987 193.706L234.841 193.748L234.827 193.958C234.305 194.033 233.838 194.07 233.427 194.07C233.315 194.061 233.199 194.005 233.077 193.902C232.956 193.79 232.895 193.645 232.895 193.468ZM230.655 193.832C231.346 193.832 232.079 193.589 232.853 193.104V190.794C231.453 190.841 230.571 190.925 230.207 191.046C229.853 191.158 229.605 191.34 229.465 191.592C229.335 191.835 229.269 192.077 229.269 192.32C229.269 192.367 229.269 192.413 229.269 192.46C229.297 192.945 229.442 193.295 229.703 193.51C229.965 193.725 230.282 193.832 230.655 193.832ZM238.922 187.266C238.362 187.275 237.756 187.481 237.102 187.882V193.72L238.152 193.79C238.152 193.799 238.148 193.869 238.138 194L235.338 194.014C235.338 193.93 235.343 193.865 235.352 193.818L236.08 193.72C236.136 193.72 236.174 193.678 236.192 193.594V187.448C236.174 187.383 236.146 187.35 236.108 187.35L235.268 187.322L235.282 187.126C235.786 187.042 236.169 187 236.43 187C236.692 187 236.869 187.061 236.962 187.182C237.056 187.303 237.102 187.434 237.102 187.574V187.742C237.877 187.257 238.586 186.995 239.23 186.958C240.117 186.958 240.719 187.21 241.036 187.714C241.848 187.247 242.614 186.995 243.332 186.958C243.986 186.958 244.48 187.093 244.816 187.364C244.975 187.485 245.11 187.677 245.222 187.938C245.344 188.19 245.404 188.493 245.404 188.848V193.72L246.454 193.79C246.454 193.799 246.45 193.869 246.44 194L243.64 194.014C243.64 193.93 243.645 193.865 243.654 193.818L244.382 193.72C244.438 193.72 244.476 193.678 244.494 193.594V189.198C244.494 188.825 244.448 188.507 244.354 188.246C244.261 187.975 244.158 187.779 244.046 187.658C243.934 187.537 243.794 187.443 243.626 187.378C243.44 187.303 243.239 187.266 243.024 187.266C242.446 187.275 241.816 187.495 241.134 187.924C241.256 188.185 241.316 188.493 241.316 188.848V193.72L242.366 193.79C242.366 193.799 242.362 193.869 242.352 194L239.538 194.014L239.552 193.818L240.28 193.72C240.346 193.711 240.388 193.664 240.406 193.58V189.184C240.406 188.727 240.346 188.353 240.224 188.064C240.103 187.765 239.94 187.569 239.734 187.476C239.454 187.336 239.184 187.266 238.922 187.266ZM250.817 187.266C250.257 187.275 249.65 187.481 248.997 187.882V193.72L250.047 193.79C250.047 193.799 250.042 193.869 250.033 194L247.233 194.014C247.233 193.93 247.238 193.865 247.247 193.818L247.975 193.72C248.031 193.72 248.068 193.678 248.087 193.594V187.448C248.068 187.383 248.04 187.35 248.003 187.35L247.163 187.322L247.177 187.126C247.681 187.042 248.064 187 248.325 187C248.586 187 248.764 187.061 248.857 187.182C248.95 187.303 248.997 187.434 248.997 187.574V187.742C249.772 187.257 250.481 186.995 251.125 186.958C252.012 186.958 252.614 187.21 252.931 187.714C253.743 187.247 254.508 186.995 255.227 186.958C255.88 186.958 256.375 187.093 256.711 187.364C256.87 187.485 257.005 187.677 257.117 187.938C257.238 188.19 257.299 188.493 257.299 188.848V193.72L258.349 193.79C258.349 193.799 258.344 193.869 258.335 194L255.535 194.014C255.535 193.93 255.54 193.865 255.549 193.818L256.277 193.72C256.333 193.72 256.37 193.678 256.389 193.594V189.198C256.389 188.825 256.342 188.507 256.249 188.246C256.156 187.975 256.053 187.779 255.941 187.658C255.829 187.537 255.689 187.443 255.521 187.378C255.334 187.303 255.134 187.266 254.919 187.266C254.34 187.275 253.71 187.495 253.029 187.924C253.15 188.185 253.211 188.493 253.211 188.848V193.72L254.261 193.79C254.261 193.799 254.256 193.869 254.247 194L251.433 194.014L251.447 193.818L252.175 193.72C252.24 193.711 252.282 193.664 252.301 193.58V189.184C252.301 188.727 252.24 188.353 252.119 188.064C251.998 187.765 251.834 187.569 251.629 187.476C251.349 187.336 251.078 187.266 250.817 187.266ZM259.897 190.78C259.897 192.796 260.681 193.804 262.249 193.804C262.66 193.804 263.099 193.762 263.565 193.678C264.032 193.585 264.331 193.501 264.461 193.426L264.559 193.566C264.345 193.706 263.99 193.823 263.495 193.916C263.01 194.009 262.562 194.056 262.151 194.056C261.75 194.056 261.386 194.014 261.059 193.93C260.742 193.846 260.415 193.697 260.079 193.482C259.743 193.267 259.477 192.931 259.281 192.474C259.085 192.017 258.987 191.457 258.987 190.794C258.987 189.562 259.305 188.619 259.939 187.966C260.602 187.285 261.372 186.944 262.249 186.944C263.127 186.944 263.794 187.187 264.251 187.672C264.718 188.157 264.951 188.839 264.951 189.716C264.951 189.903 264.937 190.103 264.909 190.318H259.911C259.902 190.421 259.897 190.575 259.897 190.78ZM264.125 189.618C264.125 188.918 263.971 188.349 263.663 187.91C263.355 187.462 262.935 187.238 262.403 187.238C261.713 187.238 261.129 187.541 260.653 188.148C260.271 188.624 260.033 189.259 259.939 190.052H264.111C264.121 189.949 264.125 189.805 264.125 189.618Z" fill="white"/>
</svg>
