<svg width="58" height="240" viewBox="0 0 58 240" fill="none" xmlns="http://www.w3.org/2000/svg">
<path fill-rule="evenodd" clip-rule="evenodd" d="M58 0H0V240H58V0ZM38.857 204.615C37.7892 204.159 36.7997 203.931 35.8882 203.931C35.1721 203.931 34.5731 204.178 34.0913 204.673C33.6096 205.168 33.3687 205.76 33.3687 206.451C33.3687 207.258 33.6096 207.844 34.0913 208.208C34.5601 208.573 35.1721 208.879 35.9273 209.126C37.5288 209.712 38.7463 210.585 39.5796 211.743C40.3999 212.889 40.8101 214.296 40.8101 215.962C40.8101 217.499 40.4455 218.84 39.7163 219.986C38.9872 221.132 37.8869 222.017 36.4156 222.642C34.9312 223.267 33.0757 223.579 30.8491 223.579C27.5158 223.579 24.9442 222.876 23.1343 221.47C21.3244 220.051 20.4195 218.15 20.4195 215.767C20.4195 214.27 20.771 213.013 21.4741 211.997C22.1773 210.969 23.2385 210.077 24.6577 209.322C25.5171 208.866 26.1226 208.456 26.4741 208.091C26.8257 207.714 27.0015 207.154 27.0015 206.411C27.0015 205.747 26.7476 205.181 26.2398 204.712C25.732 204.243 25.146 204.009 24.482 204.009C23.271 204.009 21.9885 204.491 20.6343 205.454C19.2671 206.418 18.1213 207.805 17.1968 209.615C16.2723 211.424 15.8101 213.488 15.8101 215.806C15.8101 217.707 16.1486 219.497 16.8257 221.177C17.5028 222.857 18.4924 224.322 19.7945 225.572C21.0835 226.822 22.6395 227.785 24.4624 228.462C26.2853 229.126 28.3491 229.458 30.6538 229.458C32.0731 229.458 33.4142 229.328 34.6773 229.068C35.9403 228.794 37.1317 228.391 38.2515 227.857C39.3583 227.323 40.3609 226.678 41.2593 225.923C42.2489 225.077 43.0497 224.152 43.6616 223.15C44.2606 222.134 44.7033 221.008 44.9898 219.771C45.2762 218.534 45.4195 217.16 45.4195 215.65C45.4195 213.658 45.1004 211.913 44.4624 210.415C43.8244 208.918 42.9976 207.688 41.982 206.724C40.9533 205.76 39.9116 205.057 38.857 204.615ZM17.6265 178.482C16.4156 180.604 15.8101 183.15 15.8101 186.118C15.8101 188.306 16.1551 190.259 16.8452 191.978C17.5223 193.697 18.5054 195.155 19.7945 196.353C21.0835 197.551 22.646 198.469 24.482 199.107C26.3179 199.732 28.3361 200.044 30.5366 200.044C32.6851 200.044 34.6838 199.745 36.5327 199.146C38.3817 198.534 39.9637 197.635 41.2788 196.451C42.5939 195.266 43.6161 193.788 44.3452 192.017C45.0614 190.246 45.4195 188.241 45.4195 186.001C45.4195 183.749 45.0679 181.75 44.3648 180.005C43.6616 178.26 42.646 176.789 41.3179 175.591C39.9898 174.393 38.4208 173.495 36.6109 172.896C34.801 172.297 32.7892 171.997 30.5757 171.997C27.5809 171.997 24.9767 172.544 22.7632 173.638C20.5366 174.732 18.8244 176.346 17.6265 178.482ZM25.0874 178.892C26.6239 178.215 28.4403 177.876 30.5366 177.876C32.8023 177.876 34.7098 178.247 36.2593 178.99C37.8088 179.719 38.9546 180.708 39.6968 181.958C40.439 183.195 40.8101 184.556 40.8101 186.04C40.8101 187.199 40.5952 188.267 40.1656 189.243C39.7359 190.207 39.0913 191.066 38.232 191.822C37.3596 192.564 36.2658 193.143 34.9507 193.56C33.6356 193.964 32.1642 194.165 30.5366 194.165C28.9221 194.165 27.4702 193.964 26.1812 193.56C24.8791 193.143 23.8114 192.583 22.9781 191.88C22.1447 191.164 21.5132 190.318 21.0835 189.341C20.6408 188.352 20.4195 187.277 20.4195 186.118C20.4195 184.491 20.8166 183.052 21.6109 181.802C22.3921 180.539 23.551 179.569 25.0874 178.892ZM36.1616 148.326L19.2866 159.478C18.7919 159.79 18.3166 160.096 17.8609 160.396C17.4051 160.682 17.034 160.969 16.7476 161.255C16.4611 161.529 16.2333 161.854 16.064 162.232C15.8947 162.596 15.8101 163.039 15.8101 163.56C15.8101 164.224 15.9989 164.842 16.3765 165.415C16.7411 165.988 17.2163 166.398 17.8023 166.646C18.3361 166.854 19.0718 166.958 20.0093 166.958H42.0991C43.1799 166.958 44.0067 166.711 44.5796 166.216C45.1395 165.721 45.4195 165.064 45.4195 164.243C45.4195 163.449 45.1395 162.798 44.5796 162.29C44.0197 161.783 43.1929 161.529 42.0991 161.529H25.3218L42.0015 150.65C42.4572 150.337 42.9064 150.025 43.3491 149.712C43.7788 149.4 44.1564 149.061 44.482 148.697C44.8075 148.332 45.0419 147.941 45.1851 147.525C45.3413 147.108 45.4195 146.639 45.4195 146.118C45.4195 144.035 44.1629 142.993 41.6499 142.993H19.1304C18.0236 142.993 17.1968 143.234 16.6499 143.716C16.09 144.198 15.8101 144.855 15.8101 145.689C15.8101 146.496 16.09 147.141 16.6499 147.622C17.1968 148.091 18.0236 148.326 19.1304 148.326H36.1616ZM21.0835 124.38V118.052C21.0835 117.063 20.8687 116.32 20.439 115.826C19.9963 115.331 19.4169 115.083 18.7007 115.083C17.9846 115.083 17.4051 115.331 16.9624 115.826C16.5197 116.307 16.2984 117.049 16.2984 118.052V136.49C16.2984 137.44 16.5132 138.169 16.9429 138.677C17.3726 139.172 17.9585 139.419 18.7007 139.419C19.4169 139.419 19.9963 139.178 20.439 138.697C20.8687 138.215 21.0835 137.479 21.0835 136.49V130.161H41.8843C43.0692 130.161 43.9546 129.895 44.5406 129.361C45.1265 128.814 45.4195 128.111 45.4195 127.251C45.4195 126.405 45.133 125.715 44.5601 125.181C43.9741 124.647 43.0822 124.38 41.8843 124.38H21.0835ZM38.0952 97.2318L41.689 95.8646C42.1317 95.6823 42.646 95.4675 43.232 95.2201C43.8049 94.9596 44.2346 94.7188 44.521 94.4974C44.7945 94.2761 45.0093 94.0026 45.1656 93.6771C45.3348 93.3516 45.4195 92.9609 45.4195 92.5052C45.4195 91.724 45.146 91.0599 44.5991 90.513C44.0392 89.9531 43.4273 89.6732 42.7632 89.6732C42.1252 89.6732 41.1031 89.9662 39.6968 90.5521L21.2202 98.0326C20.2958 98.3841 19.5601 98.6771 19.0132 98.9115C18.4533 99.1328 17.9325 99.4128 17.4507 99.7513C16.9689 100.077 16.5783 100.513 16.2788 101.06C15.9663 101.594 15.8101 102.264 15.8101 103.072C15.8101 103.866 15.9663 104.536 16.2788 105.083C16.5783 105.617 16.9754 106.053 17.4702 106.392C17.965 106.717 18.59 107.03 19.3452 107.329C20.0874 107.616 20.7254 107.863 21.2593 108.072L39.8531 115.396C40.5952 115.695 41.1747 115.91 41.5913 116.04C42.008 116.171 42.4116 116.236 42.8023 116.236C43.4794 116.236 44.0848 115.956 44.6187 115.396C45.1525 114.836 45.4195 114.191 45.4195 113.462C45.4195 112.603 45.1721 111.984 44.6773 111.607C44.1695 111.229 43.1994 110.773 41.7671 110.24L38.0952 108.872V97.2318ZM21.9234 103.111L33.7398 98.7943V107.349L21.9234 103.111ZM38.857 62.7005C37.7892 62.2448 36.7997 62.0169 35.8882 62.0169C35.1721 62.0169 34.5731 62.2643 34.0913 62.7591C33.6096 63.2539 33.3687 63.8464 33.3687 64.5365C33.3687 65.3438 33.6096 65.9297 34.0913 66.2943C34.5601 66.6589 35.1721 66.9649 35.9273 67.2122C37.5288 67.7982 38.7463 68.6706 39.5796 69.8294C40.3999 70.9753 40.8101 72.3815 40.8101 74.0482C40.8101 75.5846 40.4455 76.9258 39.7163 78.0716C38.9872 79.2175 37.8869 80.1029 36.4156 80.7279C34.9312 81.3529 33.0757 81.6654 30.8491 81.6654C27.5158 81.6654 24.9442 80.9622 23.1343 79.556C21.3244 78.1367 20.4195 76.2357 20.4195 73.8529C20.4195 72.3555 20.771 71.099 21.4741 70.0833C22.1773 69.0547 23.2385 68.1628 24.6577 67.4076C25.5171 66.9518 26.1226 66.5417 26.4741 66.1771C26.8257 65.7995 27.0015 65.2396 27.0015 64.4974C27.0015 63.8333 26.7476 63.2669 26.2398 62.7982C25.732 62.3294 25.146 62.0951 24.482 62.0951C23.271 62.0951 21.9885 62.5768 20.6343 63.5404C19.2671 64.5039 18.1213 65.8906 17.1968 67.7005C16.2723 69.5104 15.8101 71.5742 15.8101 73.8919C15.8101 75.793 16.1486 77.5833 16.8257 79.263C17.5028 80.9427 18.4924 82.4076 19.7945 83.6576C21.0835 84.9076 22.6395 85.8711 24.4624 86.5482C26.2853 87.2122 28.3491 87.5443 30.6538 87.5443C32.0731 87.5443 33.4142 87.4141 34.6773 87.1537C35.9403 86.8802 37.1317 86.4766 38.2515 85.9427C39.3583 85.4089 40.3609 84.7643 41.2593 84.0091C42.2489 83.1628 43.0497 82.2383 43.6616 81.2357C44.2606 80.2201 44.7033 79.0938 44.9898 77.8568C45.2762 76.6198 45.4195 75.2461 45.4195 73.7357C45.4195 71.7435 45.1004 69.9987 44.4624 68.5013C43.8244 67.0039 42.9976 65.7734 41.982 64.8099C40.9533 63.8464 39.9116 63.1432 38.857 62.7005ZM21.0835 44.5365V38.2083C21.0835 37.2188 20.8687 36.4766 20.439 35.9818C19.9963 35.487 19.4169 35.2396 18.7007 35.2396C17.9846 35.2396 17.4051 35.487 16.9624 35.9818C16.5197 36.4636 16.2984 37.2057 16.2984 38.2083V56.6458C16.2984 57.5964 16.5132 58.3255 16.9429 58.8333C17.3726 59.3281 17.9585 59.5755 18.7007 59.5755C19.4169 59.5755 19.9963 59.3346 20.439 58.8529C20.8687 58.3711 21.0835 57.6354 21.0835 56.6458V50.3177H41.8843C43.0692 50.3177 43.9546 50.0508 44.5406 49.5169C45.1265 48.9701 45.4195 48.2669 45.4195 47.4076C45.4195 46.5612 45.133 45.8711 44.5601 45.3372C43.9741 44.8034 43.0822 44.5365 41.8843 44.5365H21.0835ZM41.0054 11.3919C39.6252 10.4935 38.0692 10.0443 36.3374 10.0443C34.8921 10.0443 33.6747 10.3047 32.6851 10.8255C31.6825 11.3333 30.8557 12.0495 30.2046 12.974C29.5536 13.8854 29.0002 14.9987 28.5445 16.3138C28.0887 17.6159 27.6721 19.0742 27.2945 20.6888C26.9689 21.9779 26.7215 22.9024 26.5523 23.4622C26.383 24.0221 26.1486 24.5755 25.8491 25.1224C25.5497 25.6693 25.1916 26.099 24.7749 26.4115C24.3583 26.724 23.8635 26.8802 23.2906 26.8802C22.3661 26.8802 21.5783 26.4245 20.9273 25.513C20.2632 24.5886 19.9312 23.3776 19.9312 21.8802C19.9312 20.2656 20.2372 19.0938 20.8491 18.3646C21.4481 17.6354 22.2879 17.0104 23.3687 16.4896C24.1239 16.0859 24.6708 15.7149 25.0093 15.3763C25.3348 15.0247 25.4976 14.5169 25.4976 13.8529C25.4976 13.1237 25.2241 12.5182 24.6773 12.0365C24.1174 11.5417 23.4924 11.2943 22.8023 11.2943C22.0471 11.2943 21.2723 11.4896 20.4781 11.8802C19.6838 12.2708 18.9286 12.8893 18.2124 13.7357C17.4833 14.582 16.9038 15.6497 16.4741 16.9388C16.0314 18.2149 15.8101 19.7318 15.8101 21.4896C15.8101 23.6901 16.1421 25.6042 16.8062 27.2318C17.4572 28.8594 18.3947 30.1029 19.6187 30.9622C20.8426 31.8216 22.2424 32.2513 23.8179 32.2513C25.4715 32.2513 26.8583 31.8477 27.9781 31.0404C29.0848 30.2201 29.9637 29.1198 30.6148 27.7396C31.2528 26.3464 31.8127 24.6211 32.2945 22.5638C32.646 21.0274 32.9781 19.8034 33.2906 18.8919C33.6031 17.9675 34.0588 17.2188 34.6577 16.6458C35.2437 16.0599 36.0119 15.7669 36.9624 15.7669C38.1603 15.7669 39.1629 16.3073 39.9702 17.388C40.7645 18.4557 41.1616 19.849 41.1616 21.5677C41.1616 22.8177 40.9663 23.8268 40.5757 24.5951C40.1721 25.3633 39.6642 25.9622 39.0523 26.3919C38.4403 26.8086 37.6786 27.1992 36.7671 27.5638C35.9989 27.8633 35.4195 28.2279 35.0288 28.6576C34.6382 29.0742 34.4429 29.5886 34.4429 30.2005C34.4429 30.9557 34.6968 31.5807 35.2046 32.0755C35.6994 32.5573 36.2984 32.7982 37.0015 32.7982C38.2124 32.7982 39.4624 32.3945 40.7515 31.5872C42.0275 30.7669 43.0497 29.7057 43.8179 28.4037C44.8856 26.5677 45.4195 24.237 45.4195 21.4115C45.4195 19.0547 45.0288 17.0169 44.2476 15.2982C43.4663 13.5794 42.3856 12.2774 41.0054 11.3919Z" fill="#001427"/>
</svg>
