<svg width="58" height="240" viewBox="0 0 58 240" fill="none" xmlns="http://www.w3.org/2000/svg">
<path fill-rule="evenodd" clip-rule="evenodd" d="M58 0H0V240H58V0ZM19.583 223.194V211.108C19.583 210.253 19.3963 209.62 19.023 209.211C18.6376 208.789 18.1317 208.578 17.5054 208.578C16.8911 208.578 16.3973 208.789 16.0239 209.211C15.6385 209.62 15.4458 210.253 15.4458 211.108V225.272C15.4458 226.031 15.5602 226.657 15.7891 227.151C16.0059 227.632 16.3612 227.988 16.855 228.217C17.3368 228.445 17.9631 228.56 18.7339 228.56H38.6431C39.7993 228.56 40.6364 228.307 41.1543 227.801C41.6722 227.283 41.9312 226.44 41.9312 225.272V210.692C41.9312 209.849 41.7385 209.217 41.3531 208.795C40.9556 208.362 40.4437 208.145 39.8174 208.145C39.167 208.145 38.6491 208.362 38.2637 208.795C37.8662 209.217 37.6675 209.849 37.6675 210.692V223.194H30.1338V212.065C30.1338 211.234 29.9471 210.62 29.5738 210.223C29.1883 209.825 28.6945 209.626 28.0923 209.626C27.4901 209.626 27.0083 209.831 26.647 210.241C26.2736 210.638 26.0869 211.246 26.0869 212.065V223.194H19.583ZM15.4458 193.565V200.557C15.4458 201.713 15.7048 202.55 16.2227 203.068C16.7406 203.586 17.5777 203.845 18.7339 203.845H38.1553C39.0104 203.845 39.709 203.773 40.251 203.628C40.7809 203.472 41.1965 203.146 41.4976 202.653C41.7866 202.159 41.9312 201.424 41.9312 200.449V193.457C41.9312 192.24 41.8529 191.15 41.6963 190.187C41.5397 189.211 41.2687 188.302 40.8833 187.459C40.4979 186.616 39.986 185.839 39.3477 185.128C38.5166 184.225 37.5772 183.484 36.5293 182.906C35.4694 182.328 34.2831 181.9 32.9702 181.623C31.6574 181.346 30.2061 181.208 28.6162 181.208C23.7985 181.208 20.2093 182.587 17.8487 185.345C16.9212 186.405 16.2889 187.585 15.9517 188.886C15.6144 190.187 15.4458 191.747 15.4458 193.565ZM37.6675 198.479H19.6914V194.938C19.6914 193.3 19.8721 191.903 20.2334 190.747C20.5827 189.591 21.4077 188.621 22.7085 187.838C24.0093 187.043 25.9665 186.646 28.5801 186.646C32.2897 186.646 34.9033 187.543 36.4209 189.338C36.7702 189.735 37.0412 190.205 37.2339 190.747C37.4266 191.289 37.5471 191.813 37.5952 192.319C37.6434 192.825 37.6675 193.523 37.6675 194.414V198.479ZM18.2461 176.456H30.9829C32.9823 176.456 34.7046 176.24 36.1499 175.806C37.5832 175.372 38.7635 174.692 39.6909 173.764C40.6063 172.837 41.2868 171.639 41.7324 170.169C42.166 168.7 42.3828 166.947 42.3828 164.912C42.3828 163.202 42.1781 161.708 41.7686 160.431C41.3591 159.155 40.7087 158.035 39.8174 157.071C38.7696 155.951 37.5531 155.192 36.168 154.795C34.7829 154.385 33.0545 154.181 30.9829 154.181H18.2461C17.1501 154.181 16.3371 154.433 15.8072 154.939C15.2652 155.433 14.9942 156.084 14.9942 156.89C14.9942 157.697 15.2652 158.342 15.8072 158.824C16.3371 159.305 17.1501 159.546 18.2461 159.546H31.3804C33.6447 159.546 35.3369 159.98 36.4571 160.847C37.5651 161.714 38.1192 163.196 38.1192 165.291C38.1192 166.809 37.8482 167.989 37.3062 168.832C36.7521 169.675 35.9813 170.266 34.9937 170.603C33.994 170.928 32.7534 171.091 31.272 171.091H18.2461C17.1621 171.091 16.3491 171.338 15.8072 171.831C15.2652 172.313 14.9942 172.97 14.9942 173.801C14.9942 174.596 15.2652 175.24 15.8072 175.734C16.3491 176.215 17.1621 176.456 18.2461 176.456ZM36.3125 126.449C35.3249 126.027 34.4095 125.816 33.5664 125.816C32.904 125.816 32.35 126.045 31.9043 126.503C31.4587 126.96 31.2359 127.508 31.2359 128.147C31.2359 128.894 31.4587 129.436 31.9043 129.773C32.3379 130.11 32.904 130.393 33.6026 130.622C35.084 131.164 36.2101 131.971 36.981 133.043C37.7398 134.103 38.1192 135.403 38.1192 136.945C38.1192 138.366 37.7819 139.607 37.1074 140.667C36.433 141.727 35.4152 142.546 34.0542 143.124C32.6812 143.702 30.9649 143.991 28.9053 143.991C25.822 143.991 23.4432 143.341 21.7691 142.04C20.0949 140.727 19.2578 138.969 19.2578 136.764C19.2578 135.379 19.583 134.217 20.2334 133.278C20.8838 132.326 21.8654 131.501 23.1782 130.803C23.9732 130.381 24.5332 130.002 24.8584 129.664C25.1836 129.315 25.3462 128.797 25.3462 128.111C25.3462 127.496 25.1114 126.973 24.6416 126.539C24.1719 126.105 23.6299 125.889 23.0156 125.889C21.8955 125.889 20.7092 126.334 19.4566 127.225C18.1919 128.117 17.132 129.399 16.2769 131.074C15.4217 132.748 14.9942 134.657 14.9942 136.801C14.9942 138.559 15.3073 140.215 15.9336 141.769C16.5599 143.323 17.4753 144.678 18.6797 145.834C19.8721 146.99 21.3114 147.881 22.9976 148.508C24.6838 149.122 26.5928 149.429 28.7246 149.429C30.0375 149.429 31.278 149.309 32.4463 149.068C33.6146 148.815 34.7167 148.441 35.7525 147.948C36.7762 147.454 37.7036 146.858 38.5347 146.159C39.4501 145.376 40.1908 144.521 40.7569 143.594C41.3109 142.654 41.7204 141.612 41.9854 140.468C42.2503 139.324 42.3828 138.053 42.3828 136.656C42.3828 134.813 42.0877 133.199 41.4976 131.814C40.9074 130.429 40.1426 129.291 39.2031 128.4C38.2517 127.508 37.2881 126.858 36.3125 126.449ZM35.6079 105.311L38.9322 104.046C39.3417 103.878 39.8174 103.679 40.3594 103.45C40.8893 103.209 41.2868 102.986 41.5518 102.782C41.8047 102.577 42.0034 102.324 42.148 102.023C42.3045 101.722 42.3828 101.36 42.3828 100.939C42.3828 100.216 42.1299 99.6019 41.624 99.096C41.1061 98.5781 40.5401 98.3192 39.9258 98.3192C39.3356 98.3192 38.3902 98.5902 37.0894 99.1322L19.9986 106.052C19.1434 106.377 18.4629 106.648 17.9571 106.865C17.4391 107.069 16.9574 107.328 16.5117 107.641C16.0661 107.943 15.7048 108.346 15.4278 108.852C15.1387 109.346 14.9942 109.966 14.9942 110.713C14.9942 111.447 15.1387 112.068 15.4278 112.574C15.7048 113.067 16.0721 113.471 16.5298 113.784C16.9875 114.085 17.5656 114.374 18.2642 114.651C18.9507 114.916 19.5409 115.145 20.0347 115.338L37.2339 122.113C37.9204 122.39 38.4564 122.588 38.8418 122.709C39.2272 122.829 39.6006 122.889 39.9619 122.889C40.5882 122.889 41.1483 122.631 41.6421 122.113C42.1359 121.595 42.3828 120.999 42.3828 120.324C42.3828 119.529 42.154 118.957 41.6963 118.608C41.2266 118.258 40.3293 117.837 39.0044 117.343L35.6079 116.078V105.311ZM31.5791 106.756V114.669L20.6489 110.749L31.5791 106.756ZM19.8721 86.2689V80.4154C19.8721 79.5 19.6734 78.8135 19.2759 78.3558C18.8664 77.8981 18.3304 77.6693 17.668 77.6693C17.0056 77.6693 16.4696 77.8981 16.0601 78.3558C15.6506 78.8014 15.4458 79.488 15.4458 80.4154V97.4701C15.4458 98.3493 15.6446 99.0238 16.042 99.4935C16.4395 99.9512 16.9815 100.18 17.668 100.18C18.3304 100.18 18.8664 99.9572 19.2759 99.5116C19.6734 99.0659 19.8721 98.3854 19.8721 97.4701V91.6165H39.1128C40.2088 91.6165 41.0279 91.3696 41.5698 90.8758C42.1118 90.37 42.3828 89.7196 42.3828 88.9247C42.3828 88.1418 42.1179 87.5034 41.5879 87.0096C41.0459 86.5158 40.2209 86.2689 39.1128 86.2689H19.8721ZM18.2461 74.2728H39.1128C40.1968 74.2728 41.0158 74.0259 41.5698 73.5321C42.1118 73.0262 42.3828 72.3879 42.3828 71.617C42.3828 70.8101 42.1118 70.1597 41.5698 69.6659C41.0279 69.16 40.2088 68.9071 39.1128 68.9071H18.2461C17.1501 68.9071 16.3371 69.16 15.8072 69.6659C15.2652 70.1597 14.9942 70.8101 14.9942 71.617C14.9942 72.3999 15.2652 73.0383 15.8072 73.5321C16.3491 74.0259 17.1621 74.2728 18.2461 74.2728ZM16.6743 44.1742C15.5542 46.1374 14.9942 48.492 14.9942 51.2381C14.9942 53.2616 15.3133 55.0682 15.9517 56.6581C16.578 58.2479 17.4873 59.5969 18.6797 60.7049C19.8721 61.813 21.3174 62.6621 23.0156 63.2523C24.7139 63.8304 26.5808 64.1195 28.6162 64.1195C30.6035 64.1195 32.4523 63.8425 34.1626 63.2884C35.8729 62.7223 37.3363 61.8913 38.5528 60.7953C39.7692 59.6992 40.7147 58.3322 41.3892 56.6942C42.0516 55.0562 42.3828 53.2013 42.3828 51.1297C42.3828 49.0461 42.0576 47.1973 41.4072 45.5833C40.7569 43.9694 39.8174 42.6084 38.5889 41.5003C37.3604 40.3923 35.909 39.5612 34.2349 39.0072C32.5607 38.4531 30.6999 38.1761 28.6524 38.1761C25.8822 38.1761 23.4733 38.682 21.4258 39.6937C19.3662 40.7054 17.7824 42.1989 16.6743 44.1742ZM23.5757 44.5536C24.9969 43.9273 26.6771 43.6141 28.6162 43.6141C30.7119 43.6141 32.4764 43.9574 33.9097 44.6439C35.343 45.3184 36.4029 46.2337 37.0894 47.39C37.7759 48.5342 38.1192 49.7928 38.1192 51.1659C38.1192 52.2378 37.9204 53.2254 37.523 54.1288C37.1255 55.02 36.5293 55.815 35.7344 56.5135C34.9274 57.2 33.9157 57.736 32.6992 58.1214C31.4828 58.4948 30.1218 58.6815 28.6162 58.6815C27.1227 58.6815 25.7798 58.4948 24.5874 58.1214C23.383 57.736 22.3954 57.2181 21.6245 56.5677C20.8537 55.9053 20.2696 55.1224 19.8721 54.2191C19.4626 53.3037 19.2578 52.3101 19.2578 51.2381C19.2578 49.7326 19.6252 48.4017 20.3599 47.2455C21.0825 46.0772 22.1545 45.1799 23.5757 44.5536ZM33.8194 16.2796L18.21 26.5956C17.7523 26.8846 17.3127 27.1677 16.8911 27.4447C16.4696 27.7096 16.1263 27.9746 15.8614 28.2396C15.5964 28.4925 15.3856 28.7936 15.229 29.1429C15.0725 29.4802 14.9942 29.8897 14.9942 30.3714C14.9942 30.9857 15.1688 31.5578 15.5181 32.0877C15.8553 32.6177 16.2949 32.9971 16.8369 33.2259C17.3308 33.4186 18.0113 33.515 18.8784 33.515H39.3115C40.3112 33.515 41.076 33.2861 41.606 32.8285C42.1239 32.3708 42.3828 31.7625 42.3828 31.0038C42.3828 30.2691 42.1239 29.6668 41.606 29.1971C41.0881 28.7274 40.3233 28.4925 39.3115 28.4925H23.7925L39.2212 18.4295C39.6428 18.1405 40.0583 17.8514 40.4678 17.5623C40.8653 17.2733 41.2145 16.9601 41.5156 16.6229C41.8168 16.2857 42.0336 15.9243 42.166 15.5389C42.3106 15.1535 42.3828 14.7199 42.3828 14.2381C42.3828 12.311 41.2206 11.3475 38.896 11.3475H18.0655C17.0417 11.3475 16.2769 11.5703 15.771 12.016C15.2531 12.4616 14.9942 13.0698 14.9942 13.8407C14.9942 14.5874 15.2531 15.1836 15.771 15.6292C16.2769 16.0628 17.0417 16.2796 18.0655 16.2796H33.8194Z" fill="#708D81"/>
</svg>
