<svg width="58" height="240" viewBox="0 0 58 240" fill="none" xmlns="http://www.w3.org/2000/svg">
<path fill-rule="evenodd" clip-rule="evenodd" d="M58 0H0V240H58V0ZM37.0928 182.509C35.3675 181.386 33.4225 180.824 31.2578 180.824C29.4512 180.824 27.9294 181.15 26.6924 181.801C25.4391 182.436 24.4056 183.331 23.5918 184.487C22.778 185.626 22.0863 187.017 21.5166 188.661C20.9469 190.289 20.4261 192.112 19.9541 194.13C19.5472 195.741 19.238 196.897 19.0264 197.597C18.8148 198.297 18.5218 198.988 18.1475 199.672C17.7731 200.356 17.3255 200.893 16.8047 201.283C16.2839 201.674 15.6654 201.869 14.9492 201.869C13.7936 201.869 12.8089 201.3 11.9951 200.16C11.165 199.005 10.75 197.491 10.75 195.619C10.75 193.601 11.1325 192.136 11.8975 191.225C12.6462 190.313 13.696 189.532 15.0469 188.881C15.9909 188.376 16.6745 187.913 17.0977 187.489C17.5046 187.05 17.708 186.415 17.708 185.585C17.708 184.674 17.3662 183.917 16.6826 183.315C15.9827 182.696 15.2015 182.387 14.3389 182.387C13.3949 182.387 12.4264 182.631 11.4336 183.119C10.4408 183.608 9.49675 184.381 8.60156 185.439C7.6901 186.497 6.96582 187.831 6.42871 189.443C5.87533 191.038 5.59863 192.934 5.59863 195.131C5.59863 197.882 6.01367 200.274 6.84375 202.309C7.65755 204.343 8.82943 205.898 10.3594 206.972C11.8893 208.046 13.639 208.583 15.6084 208.583C17.6755 208.583 19.4089 208.079 20.8086 207.07C22.1921 206.044 23.2907 204.669 24.1045 202.944C24.902 201.202 25.6019 199.045 26.2041 196.474C26.6436 194.553 27.0586 193.023 27.4492 191.884C27.8398 190.728 28.4095 189.792 29.1582 189.076C29.8906 188.344 30.8509 187.978 32.0391 187.978C33.5365 187.978 34.7897 188.653 35.7988 190.004C36.7917 191.339 37.2881 193.08 37.2881 195.229C37.2881 196.791 37.0439 198.053 36.5557 199.013C36.0511 199.973 35.4163 200.722 34.6514 201.259C33.8864 201.78 32.9342 202.268 31.7949 202.724C30.8346 203.098 30.1104 203.554 29.6221 204.091C29.1338 204.612 28.8896 205.255 28.8896 206.02C28.8896 206.964 29.207 207.745 29.8418 208.363C30.4603 208.966 31.209 209.267 32.0879 209.267C33.6016 209.267 35.1641 208.762 36.7754 207.753C38.3704 206.728 39.6481 205.401 40.6084 203.774C41.943 201.479 42.6104 198.565 42.6104 195.033C42.6104 192.087 42.1221 189.54 41.1455 187.392C40.1689 185.243 38.818 183.616 37.0928 182.509ZM22.542 167.372H9.99316C8.51204 167.372 7.41341 167.714 6.69727 168.398C5.96484 169.065 5.59863 169.944 5.59863 171.034C5.59863 172.141 5.96484 173.02 6.69727 173.671C7.42969 174.306 8.52832 174.623 9.99316 174.623H36.6045C37.7438 174.623 38.6146 174.599 39.2168 174.55C39.819 174.501 40.348 174.363 40.8037 174.135C41.3571 173.826 41.7966 173.386 42.1221 172.817C42.4476 172.247 42.6104 171.653 42.6104 171.034C42.6104 169.96 42.2523 169.081 41.5361 168.398C40.8037 167.714 39.6888 167.372 38.1914 167.372H30.7939L25.1055 161.44L38.2891 152.87C38.875 152.529 39.526 152.138 40.2422 151.698C40.9583 151.259 41.5361 150.722 41.9756 150.087C42.3988 149.452 42.6104 148.63 42.6104 147.621C42.6104 146.547 42.3174 145.701 41.7314 145.082C41.1455 144.447 40.4538 144.13 39.6562 144.13C38.9401 144.13 38.2077 144.309 37.459 144.667C36.694 145.025 35.807 145.562 34.7979 146.279L20.2471 156.435L11.8975 147.621C10.8558 146.531 9.80599 145.986 8.74805 145.986C7.86914 145.986 7.12858 146.311 6.52637 146.962C5.90788 147.597 5.59863 148.435 5.59863 149.477C5.59863 150.274 5.76953 150.917 6.11133 151.405C6.45312 151.877 6.9821 152.455 7.69824 153.139L22.542 167.372ZM9.99316 137.367H38.1914C39.6562 137.367 40.763 137.034 41.5117 136.366C42.2441 135.683 42.6104 134.82 42.6104 133.779C42.6104 132.688 42.2441 131.809 41.5117 131.142C40.7793 130.458 39.6725 130.116 38.1914 130.116H9.99316C8.51204 130.116 7.41341 130.458 6.69727 131.142C5.96484 131.809 5.59863 132.688 5.59863 133.779C5.59863 134.836 5.96484 135.699 6.69727 136.366C7.42969 137.034 8.52832 137.367 9.99316 137.367ZM36.043 114.882H9.99316C8.51204 114.882 7.41341 115.224 6.69727 115.907C5.96484 116.575 5.59863 117.454 5.59863 118.544C5.59863 119.618 5.96484 120.489 6.69727 121.156C7.42969 121.807 8.52832 122.133 9.99316 122.133H37.5566C39.1191 122.133 40.2503 121.791 40.9502 121.108C41.6501 120.408 42 119.268 42 117.69V100.185C42 98.9966 41.7314 98.0933 41.1943 97.4748C40.6409 96.8563 39.9248 96.5471 39.0459 96.5471C38.1833 96.5471 37.4671 96.8644 36.8975 97.4992C36.3278 98.1177 36.043 99.0129 36.043 100.185V114.882ZM36.043 84.6574H9.99316C8.51204 84.6574 7.41341 84.9992 6.69727 85.6828C5.96484 86.3501 5.59863 87.229 5.59863 88.3195C5.59863 89.3937 5.96484 90.2645 6.69727 90.9318C7.42969 91.5829 8.52832 91.9084 9.99316 91.9084H37.5566C39.1191 91.9084 40.2503 91.5666 40.9502 90.883C41.6501 90.1831 42 89.0438 42 87.465V69.9601C42 68.772 41.7314 67.8687 41.1943 67.2502C40.6409 66.6317 39.9248 66.3224 39.0459 66.3224C38.1833 66.3224 37.4671 66.6398 36.8975 67.2746C36.3278 67.8931 36.043 68.7883 36.043 69.9601V84.6574ZM37.0928 37.9289C35.3675 36.8058 33.4225 36.2443 31.2578 36.2443C29.4512 36.2443 27.9294 36.5698 26.6924 37.2209C25.4391 37.8557 24.4056 38.7508 23.5918 39.9064C22.778 41.0458 22.0863 42.4374 21.5166 44.0812C20.9469 45.7088 20.4261 47.5318 19.9541 49.55C19.5472 51.1613 19.238 52.3169 19.0264 53.0168C18.8148 53.7167 18.5218 54.4084 18.1475 55.092C17.7731 55.7756 17.3255 56.3127 16.8047 56.7033C16.2839 57.0939 15.6654 57.2892 14.9492 57.2892C13.7936 57.2892 12.8089 56.7196 11.9951 55.5803C11.165 54.4247 10.75 52.911 10.75 51.0392C10.75 49.021 11.1325 47.5562 11.8975 46.6447C12.6462 45.7333 13.696 44.952 15.0469 44.301C15.9909 43.7964 16.6745 43.3325 17.0977 42.9094C17.5046 42.4699 17.708 41.8351 17.708 41.0051C17.708 40.0936 17.3662 39.3368 16.6826 38.7346C15.9827 38.1161 15.2015 37.8068 14.3389 37.8068C13.3949 37.8068 12.4264 38.051 11.4336 38.5392C10.4408 39.0275 9.49675 39.8006 8.60156 40.8586C7.6901 41.9165 6.96582 43.2512 6.42871 44.8625C5.87533 46.4575 5.59863 48.3537 5.59863 50.551C5.59863 53.3016 6.01367 55.6942 6.84375 57.7287C7.65755 59.7632 8.82943 61.3176 10.3594 62.3918C11.8893 63.466 13.639 64.0031 15.6084 64.0031C17.6755 64.0031 19.4089 63.4986 20.8086 62.4894C22.1921 61.4641 23.2907 60.0887 24.1045 58.3635C24.902 56.6219 25.6019 54.4654 26.2041 51.8937C26.6436 49.9732 27.0586 48.4432 27.4492 47.3039C27.8398 46.1483 28.4095 45.2124 29.1582 44.4963C29.8906 43.7639 30.8509 43.3976 32.0391 43.3976C33.5365 43.3976 34.7897 44.0731 35.7988 45.424C36.7917 46.7586 37.2881 48.5002 37.2881 50.6486C37.2881 52.2111 37.0439 53.4725 36.5557 54.4328C36.0511 55.3931 35.4163 56.1418 34.6514 56.6789C33.8864 57.1997 32.9342 57.688 31.7949 58.1437C30.8346 58.5181 30.1104 58.9738 29.6221 59.5109C29.1338 60.0318 28.8896 60.6747 28.8896 61.4396C28.8896 62.3836 29.207 63.1649 29.8418 63.7834C30.4603 64.3856 31.209 64.6867 32.0879 64.6867C33.6016 64.6867 35.1641 64.1822 36.7754 63.173C38.3704 62.1476 39.6481 60.8211 40.6084 59.1935C41.943 56.8986 42.6104 53.9852 42.6104 50.4533C42.6104 47.5073 42.1221 44.9601 41.1455 42.8117C40.1689 40.6633 38.818 39.0357 37.0928 37.9289Z" fill="#8D0801"/>
</svg>
